<svg width="34" height="33" viewBox="0 0 34 33" fill="none" xmlns="http://www.w3.org/2000/svg">
<g filter="url(#filter0_b_1309_622)">
<circle cx="16.9031" cy="16.8282" r="16.1434" fill="white" fill-opacity="0.24"/>
</g>
<g clip-path="url(#clip0_1309_622)">
<path d="M26.7687 15.6836C26.9879 15.5202 27.1506 15.2923 27.2338 15.0318C27.3171 14.7714 27.3167 14.4914 27.2328 14.2311C27.1488 13.9708 26.9856 13.7434 26.7658 13.5806C26.5461 13.4178 26.2809 13.3279 26.0075 13.3234L20.6972 13.1228C20.6711 13.121 20.646 13.1117 20.6251 13.096C20.6042 13.0803 20.5882 13.0589 20.5792 13.0343L18.7442 8.07802C18.652 7.82587 18.4845 7.60813 18.2645 7.45429C18.0444 7.30046 17.7824 7.21796 17.5139 7.21796C17.2455 7.21796 16.9835 7.30046 16.7634 7.45429C16.5434 7.60813 16.3759 7.82587 16.2837 8.07802L14.4546 13.052C14.4456 13.0766 14.4296 13.098 14.4087 13.1137C14.3877 13.1294 14.3627 13.1387 14.3366 13.1405L9.02628 13.3411C8.75286 13.3456 8.4877 13.4355 8.26796 13.5983C8.04823 13.7611 7.88495 13.9885 7.80102 14.2488C7.71709 14.5091 7.71671 14.7891 7.79994 15.0495C7.88317 15.31 8.04584 15.5379 8.26514 15.7013L12.4308 18.976C12.4516 18.9924 12.4672 19.0145 12.4756 19.0397C12.484 19.0649 12.4848 19.092 12.478 19.1176L11.0442 24.1978C10.9699 24.4565 10.9771 24.7318 11.0648 24.9863C11.1525 25.2407 11.3165 25.462 11.5344 25.6199C11.7524 25.7779 12.0137 25.8649 12.2828 25.8691C12.5519 25.8733 12.8158 25.7945 13.0385 25.6434L17.4402 22.6932C17.4619 22.6782 17.4876 22.6702 17.5139 22.6702C17.5403 22.6702 17.566 22.6782 17.5877 22.6932L21.9894 25.6434C22.2091 25.7996 22.472 25.8836 22.7417 25.8836C23.0113 25.8836 23.2742 25.7996 23.494 25.6434C23.7119 25.4869 23.8761 25.2667 23.9638 25.0131C24.0515 24.7595 24.0584 24.485 23.9837 24.2273L22.5381 19.1294C22.5304 19.1038 22.5309 19.0765 22.5393 19.0511C22.5478 19.0258 22.5638 19.0037 22.5853 18.9878L26.7687 15.6836Z" fill="#D9D9D9"/>
</g>
<defs>
<filter id="filter0_b_1309_622" x="-22.1808" y="-22.2558" width="78.1679" height="78.1679" filterUnits="userSpaceOnUse" color-interpolation-filters="sRGB">
<feFlood flood-opacity="0" result="BackgroundImageFix"/>
<feGaussianBlur in="BackgroundImageFix" stdDeviation="11.4703"/>
<feComposite in2="SourceAlpha" operator="in" result="effect1_backgroundBlur_1309_622"/>
<feBlend mode="normal" in="SourceGraphic" in2="effect1_backgroundBlur_1309_622" result="shape"/>
</filter>
<clipPath id="clip0_1309_622">
<rect width="21.2413" height="21.2413" fill="white" transform="translate(6.7074 5.78271)"/>
</clipPath>
</defs>
</svg>
