<svg width="239" height="70" viewBox="0 0 239 70" fill="none" xmlns="http://www.w3.org/2000/svg">
<path fill-rule="evenodd" clip-rule="evenodd" d="M78.09 7.51514C77.8942 7.59432 77.8401 10.271 77.8383 19.9467C77.8359 33.4244 77.8527 33.2099 76.6128 35.635C76.5122 35.8319 76.4831 36.0793 76.5481 36.1848C76.705 36.439 87.5633 36.4338 89.9161 36.1782C91.7628 35.9779 92.8396 35.7295 93.9382 35.2508C94.2841 35.1003 94.6659 34.9769 94.7864 34.9769C94.9072 34.9769 95.0068 34.9095 95.008 34.8269C95.0094 34.7443 95.3549 34.5116 95.776 34.3096C96.5483 33.9393 97.5968 33.0243 98.6983 31.759C99.3778 30.9788 100.395 29.1327 100.395 28.6796C100.395 28.5139 100.475 28.3783 100.572 28.3783C100.669 28.3783 100.799 28.1308 100.859 27.8284C100.92 27.5261 101.069 26.7836 101.19 26.1788C101.311 25.5739 101.504 24.6291 101.619 24.0792C101.948 22.5031 101.549 17.5402 100.987 16.2309C100.881 15.9833 100.718 15.5786 100.625 15.3311C100.251 14.3327 99.3201 12.5817 99.1642 12.5817C99.0726 12.5817 98.9977 12.4693 98.9975 12.3317C98.9975 12.0082 97.3095 10.269 96.5726 9.83284C96.2599 9.64748 96.0038 9.42553 96.0038 9.33915C96.0038 9.25297 95.9164 9.18238 95.8096 9.18238C95.7028 9.18238 95.1415 8.97103 94.5621 8.71289C93.0045 8.01863 92.2366 7.80068 90.5963 7.58733C89.0926 7.39177 78.5457 7.33098 78.09 7.51514ZM198.397 7.7041C197.243 8.11941 196.905 8.37235 196.244 9.31315C195.308 10.6481 195.919 13.1029 197.355 13.7744C197.654 13.914 198.054 14.1075 198.244 14.2047C198.831 14.5035 199.515 14.4035 200.544 13.8688C202.949 12.6183 203.005 9.38014 200.643 8.03643C200.131 7.74509 198.821 7.55133 198.397 7.7041ZM211.243 7.74129C209.731 8.24138 207.778 10.3879 207.778 11.5495C207.778 11.7742 207.688 12.0138 207.578 12.0818C207.468 12.1498 207.379 12.6896 207.379 13.2815C207.379 13.8734 207.468 14.4133 207.578 14.4813C207.688 14.5492 207.778 14.7794 207.778 14.9929C207.778 15.3425 207.63 15.3811 206.285 15.3811C204.493 15.3811 204.54 15.2957 204.626 18.3804L204.684 20.48L206.231 20.5384L207.778 20.5968V26.9752C207.778 30.4833 207.698 33.4028 207.601 33.463C207.504 33.523 207.364 33.9761 207.29 34.4698C207.216 34.9635 207.071 35.4198 206.968 35.484C206.864 35.548 206.78 35.7749 206.78 35.9885C206.78 36.3546 206.941 36.3764 209.624 36.3736C211.188 36.3718 212.566 36.3044 212.685 36.2236C213.355 35.7695 213.465 34.7046 213.566 27.6784L213.666 20.6799L215.119 20.6211L216.572 20.5622L216.516 18.0217L216.46 15.481L214.87 15.4219C213.907 15.3861 213.219 15.2675 213.126 15.1219C212.837 14.6666 212.961 13.4495 213.341 13.0106C214.224 11.9906 216.05 12.041 216.531 13.0985C216.807 13.7046 217.037 13.5992 217.48 12.6636C217.861 11.8592 217.919 10.4639 217.585 10.1294C217.46 10.0044 217.358 9.77266 217.358 9.61429C217.358 9.30156 217.084 9.04961 215.861 8.23699C215.179 7.78368 214.816 7.6989 213.366 7.65331C212.433 7.62391 211.478 7.66351 211.243 7.74129ZM90.8143 14.2417C92.5398 14.8698 93.6202 15.7462 94.2294 17.0127C94.406 17.38 94.6755 17.9417 94.8282 18.2607C95.202 19.0427 95.2254 24.8391 94.8561 25.209C94.719 25.3463 94.6066 25.6659 94.6066 25.9188C94.6066 26.1718 94.5168 26.3787 94.407 26.3787C94.2972 26.3787 94.2074 26.5101 94.2074 26.6707C94.2074 27.0672 92.8186 28.4591 91.9881 28.895C90.9736 29.4275 89.7808 29.6228 86.9721 29.7158L84.4272 29.8002V21.8909V13.9814L87.2714 13.9844C89.0658 13.9864 90.3736 14.0811 90.8143 14.2417ZM130.505 15.4764C130.453 15.5288 129.764 15.6636 128.973 15.7758C128.183 15.8882 127.38 16.0611 127.189 16.1603C126.998 16.2595 126.399 16.552 125.858 16.8106C124.49 17.4652 122.686 19.3074 122.05 20.7015C121.005 22.9896 120.753 25.3068 121.265 27.9162C121.466 28.9402 121.703 29.778 121.791 29.778C121.879 29.778 121.951 29.9956 121.951 30.2613C121.951 30.527 122.019 30.7744 122.101 30.8112C122.183 30.8478 122.43 31.2377 122.65 31.6776C123.419 33.2201 125.371 34.8301 127.64 35.7937C129.038 36.3876 133.12 36.3592 134.526 35.7457C136.992 34.6694 138.717 32.4468 138.717 30.3451C138.717 29.0284 138.361 28.6444 137.7 29.2501C137.436 29.4921 136.653 29.9346 135.96 30.2337C134.843 30.7158 134.45 30.7778 132.513 30.7778C130.491 30.7778 130.263 30.7378 129.482 30.2465C128.476 29.6132 128.031 29.1339 127.516 28.1284L127.133 27.3785H130.932C133.021 27.3785 134.887 27.2961 135.078 27.1952C135.268 27.0944 135.735 26.8954 136.116 26.7532C137.045 26.4055 138.717 24.6999 138.717 24.0994C138.717 23.9362 138.807 23.7473 138.917 23.6793C139.027 23.6113 139.117 22.7963 139.117 21.8679C139.117 20.8759 139.034 20.18 138.917 20.18C138.807 20.18 138.717 19.9551 138.717 19.6802C138.717 19.4052 138.634 19.1803 138.531 19.1803C138.429 19.1803 138.289 19.0045 138.221 18.7899C138.062 18.2854 136.816 17.0379 136.313 16.8777C136.098 16.8096 135.923 16.6846 135.923 16.5998C135.923 16.1361 130.889 15.0921 130.505 15.4764ZM218.881 15.831C218.815 16.0785 218.76 16.545 218.758 16.8679C218.755 17.4812 219.259 19.7897 219.546 20.48C219.885 21.2948 220.333 22.3144 220.907 23.5793C221.232 24.2942 221.699 25.3289 221.945 25.8788C222.473 27.0542 223.193 28.6113 224.324 31.0237C224.774 31.9837 225.143 32.8535 225.143 32.9567C225.143 33.0597 225.25 33.1799 225.382 33.2241C225.557 33.2823 225.525 33.5096 225.264 34.0599C224.685 35.2812 224.339 35.5768 223.487 35.5768C222.499 35.5768 222.149 35.2082 222.149 34.1681C222.149 33.3972 222.113 33.3402 221.7 33.4512C221.453 33.5174 221.092 33.573 220.899 33.5744C219.954 33.5818 218.757 35.637 218.755 37.2582C218.753 37.9697 219.355 39.7759 219.593 39.7759C219.681 39.7759 219.753 39.8689 219.753 39.9826C219.753 40.2414 220.897 41.3755 221.157 41.3755C221.264 41.3755 221.35 41.4655 221.35 41.5755C221.35 41.6855 221.522 41.7754 221.733 41.7754C221.943 41.7754 222.145 41.8636 222.182 41.9714C222.292 42.2965 224.269 42.5773 225.208 42.4015C225.685 42.3121 226.5 41.947 227.018 41.5899C228.348 40.6729 229.025 39.6897 230.123 37.0764C230.215 36.8565 230.525 36.1566 230.811 35.5214C231.096 34.8859 231.33 34.2954 231.33 34.2091C231.33 34.1227 231.542 33.6078 231.802 33.0647C232.061 32.5218 232.397 31.7176 232.549 31.2777C232.701 30.8378 232.873 30.4329 232.931 30.3779C232.989 30.3229 233.43 29.3331 233.911 28.1783C234.392 27.0236 234.861 25.9932 234.954 25.8888C235.047 25.7843 235.122 25.5369 235.122 25.3389C235.122 25.141 235.192 24.979 235.278 24.979C235.364 24.979 235.608 24.5291 235.821 23.9792C236.034 23.4294 236.278 22.9794 236.364 22.9794C236.45 22.9794 236.52 22.8685 236.52 22.7327C236.52 22.5969 236.76 21.9897 237.054 21.383C237.348 20.7763 237.656 20.1001 237.739 19.8801C238.045 19.0683 238.27 17.0569 238.142 16.2809L238.01 15.481L235.119 15.4261L232.228 15.3709V17.1657C232.228 18.3348 232.141 19.0475 231.979 19.2102C231.842 19.3478 231.729 19.6222 231.729 19.8201C231.729 20.0181 231.639 20.18 231.53 20.18C231.42 20.18 231.33 20.2866 231.33 20.4168C231.33 20.5472 231.139 21.0645 230.906 21.5665C230.407 22.6411 229.527 24.5701 229.052 25.6289C228.868 26.0414 228.663 26.3787 228.598 26.3787C228.383 26.3787 227.95 25.6847 227.943 25.3289C227.94 25.1366 227.847 24.979 227.737 24.979C227.628 24.979 227.538 24.8956 227.538 24.7937C227.538 24.6917 227.215 23.9045 226.821 23.044C226.141 21.5616 225.708 20.5802 225.336 19.6802C224.859 18.5272 224.703 17.6162 224.799 16.5516L224.905 15.3811H221.953C219.061 15.3811 218.999 15.3901 218.881 15.831ZM104.437 15.7142C104.049 15.7694 103.788 15.9217 103.788 16.0935C103.788 16.2517 103.878 16.3809 103.988 16.3809C104.097 16.3809 104.187 16.5428 104.187 16.7408C104.187 16.9387 104.3 17.2133 104.437 17.3506C104.628 17.5424 104.686 19.4828 104.686 25.6789C104.686 31.875 104.628 33.8153 104.437 34.0071C104.3 34.1447 104.187 34.464 104.187 34.717C104.187 34.9699 104.108 35.1769 104.011 35.1769C103.695 35.1769 103.627 36.1484 103.934 36.2666C104.091 36.327 105.332 36.3766 106.691 36.3766C108.976 36.3766 109.192 36.3436 109.569 35.9389C109.792 35.6983 109.976 35.2934 109.976 35.0391C109.976 34.7849 110.06 34.577 110.164 34.577C110.275 34.577 110.377 32.3231 110.413 29.0282C110.473 23.6137 110.486 23.4599 110.945 22.6795C111.8 21.2248 112.821 20.58 114.266 20.58C115.002 20.58 115.281 20.6847 115.674 21.109C115.943 21.4 116.163 21.8499 116.163 22.1088C116.163 22.4776 116.271 22.5795 116.662 22.5795C116.936 22.5795 117.161 22.4896 117.161 22.3796C117.161 22.2696 117.279 22.1796 117.422 22.1796C117.816 22.1796 118.946 20.9953 119.086 20.4368C119.25 19.7819 119.017 17.9005 118.761 17.8151C118.65 17.7778 118.558 17.6584 118.558 17.5496C118.558 17.3035 118.255 17.0059 117.361 16.3743C116.72 15.9222 116.479 15.881 114.466 15.881C112.19 15.881 111.911 15.9625 110.28 17.1049C109.731 17.4896 109.466 17.4518 108.926 16.9113C108.669 16.6534 108.232 16.2937 107.956 16.1123C107.431 15.7682 105.553 15.5558 104.437 15.7142ZM163.318 15.7158C162.929 15.77 162.669 15.9213 162.669 16.0935C162.669 16.2517 162.747 16.3809 162.841 16.3809C162.936 16.3809 163.161 16.7664 163.34 17.2373C163.622 17.9753 163.667 19.1307 163.666 25.5855C163.665 33.0447 163.663 33.0833 163.171 34.477C162.9 35.2468 162.676 35.9893 162.673 36.1266C162.67 36.315 163.362 36.3766 165.477 36.3766C167.46 36.3766 168.359 36.303 168.533 36.1266C168.668 35.9893 168.931 35.3308 169.117 34.6638C169.393 33.6746 169.455 32.5434 169.455 28.5269C169.455 25.4599 169.53 23.5563 169.655 23.4793C169.765 23.4114 169.854 23.1812 169.854 22.9677C169.854 22.7541 169.938 22.5795 170.041 22.5795C170.143 22.5795 170.277 22.422 170.339 22.2296C170.522 21.6641 171.594 21.1798 172.665 21.1798C173.205 21.1798 173.647 21.2698 173.647 21.3798C173.647 21.4898 173.743 21.5797 173.861 21.5797C174.129 21.5797 174.645 22.0854 174.645 22.3486C174.645 22.4574 174.757 22.5837 174.894 22.6295C175.23 22.7415 175.254 33.478 174.921 34.1969C174.798 34.4608 174.584 34.9183 174.445 35.2134C173.942 36.2816 174.162 36.3766 177.148 36.3766C179.922 36.3766 180.433 36.245 180.433 35.531C180.433 35.3802 180.545 35.1445 180.683 35.0071C180.867 34.8225 180.947 33.3364 180.991 29.3183C181.028 25.9336 181.134 23.6527 181.274 23.2794C181.397 22.9495 181.85 22.3422 182.279 21.9297C182.966 21.2714 183.181 21.1798 184.041 21.1798C184.77 21.1798 185.154 21.295 185.54 21.6297C186.686 22.6215 186.72 22.8241 186.72 28.4983C186.72 31.905 186.643 33.8837 186.499 34.1971C185.674 35.9811 185.632 36.1376 185.95 36.2596C186.391 36.4292 191.271 36.3976 191.526 36.2236C191.645 36.1428 191.895 35.7627 192.084 35.379C192.385 34.7637 192.425 33.9475 192.415 28.4869C192.407 24.4403 192.325 22.0476 192.176 21.5861C191.714 20.1477 191.307 19.1817 191.161 19.1811C191.079 19.1807 191.012 19.0571 191.012 18.9067C191.012 18.5506 189.245 16.7808 188.89 16.7808C188.739 16.7808 188.616 16.7086 188.616 16.6204C188.616 16.3741 186.85 15.8242 185.623 15.6882C184.421 15.555 181.654 15.8774 181.345 16.1867C181.239 16.2935 180.99 16.3809 180.792 16.3809C180.595 16.3809 180.433 16.4708 180.433 16.5808C180.433 16.6908 180.32 16.7808 180.182 16.7808C180.043 16.7808 179.688 17.0057 179.392 17.2807C178.741 17.8851 178.731 17.8859 178.179 17.3636C177.185 16.423 176.034 15.9271 174.497 15.7764C172.911 15.6208 170.09 15.8688 169.765 16.1921C169.66 16.2959 169.452 16.3809 169.301 16.3809C169.151 16.3809 168.893 16.5158 168.728 16.6808C168.359 17.0507 167.97 17.0635 167.623 16.7174C166.778 15.8734 165.057 15.4732 163.318 15.7158ZM196.201 24.2674C196.201 29.8426 196.13 32.9979 196.002 33.0773C195.892 33.1453 195.802 33.4954 195.802 33.8555C195.802 34.2157 195.74 34.572 195.665 34.6474C195.444 34.8693 195.046 36.1524 195.163 36.2694C195.222 36.3284 196.51 36.3766 198.026 36.3766C200.771 36.3766 200.784 36.3744 201.121 35.8595C201.753 34.8935 201.854 33.4866 201.928 24.6947C201.987 17.711 201.949 15.8788 201.746 15.7496C201.605 15.6602 200.3 15.5858 198.846 15.584L196.201 15.581V24.2674ZM146.801 15.86C146.691 15.8998 146.22 16.0477 145.753 16.1887C145.287 16.3295 144.905 16.5204 144.905 16.6128C144.905 16.7052 144.759 16.7808 144.582 16.7808C144.143 16.7808 142.51 18.5166 142.51 18.9827C142.51 19.1885 142.42 19.4122 142.31 19.4802C141.511 19.9751 143.008 22.5795 144.091 22.5795C144.301 22.5795 144.502 22.6553 144.539 22.7477C144.576 22.8403 144.897 22.9731 145.254 23.0426C145.857 23.1604 145.903 23.131 145.909 22.6245C145.924 21.4322 147.173 20.6721 149.077 20.6973C151.523 20.7293 153.088 21.8823 153.088 23.6513V24.5613L152.265 24.2704C151.043 23.8387 146.961 23.8749 145.63 24.3292C145.067 24.5215 144.576 24.7465 144.539 24.8291C144.502 24.9116 144.361 24.979 144.224 24.979C143.805 24.979 142.197 26.6343 141.826 27.4481C141.549 28.053 141.489 28.6208 141.543 30.1049C141.581 31.1431 141.702 32.0567 141.812 32.1349C141.921 32.2133 142.144 32.5358 142.307 32.8515C142.47 33.1671 143.003 33.7784 143.492 34.2099C144.284 34.9081 144.689 35.1437 146.202 35.7873C146.422 35.8807 147.256 36.0529 148.055 36.1696C150.124 36.4722 151.937 36.1786 153.718 35.2524C154.428 34.8831 154.571 34.8993 155.442 35.4504C155.854 35.7107 156.658 36.0243 157.229 36.147C158.302 36.3776 160 36.2586 160.197 35.9393C160.259 35.8395 160.1 35.3348 159.844 34.8175C159.403 33.9253 159.373 33.596 159.25 28.3783C159.117 22.7201 159.045 21.9291 158.56 20.8497C158.405 20.5032 158.278 20.1207 158.278 19.9999C158.278 19.8789 158.188 19.7801 158.078 19.7801C157.968 19.7801 157.876 19.6678 157.873 19.5302C157.866 19.1723 156.11 17.5148 155.284 17.0861C154.024 16.4322 153.896 16.3809 153.53 16.3809C153.331 16.3809 153.061 16.2739 152.931 16.1431C152.71 15.922 147.317 15.673 146.801 15.86ZM132.795 21.0213C133.573 21.4248 133.927 21.9741 133.927 22.7795C133.927 23.3572 133.844 23.5793 133.628 23.5793C133.463 23.5793 133.328 23.6717 133.328 23.7847C133.328 24.075 127.497 23.9534 127.401 23.6611C127.279 23.2952 128.598 21.526 129.267 21.157C130.288 20.594 131.853 20.5336 132.795 21.0213ZM150.619 27.9484C151.589 28.2451 152.091 28.8362 152.084 29.6754C152.081 30.1167 151.968 30.6128 151.834 30.7778C151.5 31.1911 150.184 31.7776 149.593 31.7776C148.822 31.7776 147.527 31.1775 147.394 30.7592C147.328 30.5494 147.189 30.3779 147.087 30.3779C146.985 30.3779 146.901 30.1079 146.901 29.778C146.901 29.4481 146.985 29.1781 147.087 29.1781C147.189 29.1781 147.328 29.0064 147.394 28.7966C147.622 28.0778 149.461 27.5941 150.619 27.9484ZM77.2417 42.6753V43.1752H146.29C187.541 43.1752 215.384 43.102 215.451 42.9932C215.513 42.8932 215.508 42.6683 215.441 42.4933C215.33 42.2036 209.206 42.1754 146.281 42.1754H77.2417V42.6753ZM98.3205 48.2905C98.2538 48.4644 98.1993 51.5238 98.1993 55.089V61.5712H103.508C108.092 61.5712 108.917 61.5247 109.546 61.2305C109.947 61.043 110.389 60.7324 110.529 60.5405C110.669 60.3483 110.897 60.0744 111.036 59.9314C111.535 59.4205 111.862 58.2523 111.835 57.0782C111.82 56.4173 111.711 55.8521 111.59 55.8119C111.471 55.7719 111.373 55.5805 111.373 55.3866C111.373 55.1926 111.045 54.6961 110.645 54.2834C110.237 53.8625 110.004 53.4756 110.115 53.4028C110.398 53.2174 110.561 51.9601 110.43 50.9819C110.296 49.9809 109.249 48.7508 108.133 48.2837C107.024 47.8194 98.4985 47.8254 98.3205 48.2905ZM131.332 48.3351C130.522 48.7284 129.742 49.4502 129.386 50.1373C129.072 50.7445 129.025 59.5717 129.336 59.5717C129.446 59.5717 129.539 59.6842 129.543 59.8216C129.553 60.2097 130.194 60.8882 130.891 61.2493C131.489 61.5592 134.424 61.6474 141.871 61.579L142.729 61.5712L142.669 60.4215L142.61 59.2717L137.353 59.2183C133.145 59.1757 132.039 59.1088 131.814 58.8828C131.618 58.6863 131.532 58.1098 131.532 56.9864V55.3726H135.933H140.334L140.274 54.2228L140.214 53.073L135.873 53.0191L131.532 52.9653V52.0551C131.532 50.4616 131.458 50.482 137.465 50.4142L142.729 50.3548L142.669 49.2145L142.61 48.0741L137.32 48.0351C132.704 48.0011 131.942 48.0393 131.332 48.3351ZM160.274 49.1739V50.3736H162.852C164.27 50.3736 165.573 50.4282 165.746 50.495C166.024 50.6016 166.062 51.2942 166.062 56.2152C166.062 61.2383 166.095 61.8016 166.378 61.6926C166.552 61.6258 167.09 61.5712 167.575 61.5712H168.457V55.9724V50.3736H171.152H173.846V49.1739V47.9741H167.06H160.274V49.1739ZM192.585 50.7283C191.884 52.1278 191.244 53.303 191.161 53.3396C191.079 53.3764 191.012 53.5356 191.012 53.6935C191.012 53.8515 190.787 54.3372 190.513 54.7727C190.238 55.2082 190.014 55.7013 190.014 55.8684C190.014 56.0356 189.946 56.1728 189.864 56.1732C189.782 56.1736 189.541 56.6009 189.33 57.123C189.118 57.6449 188.893 58.117 188.829 58.172C188.624 58.3479 187.618 60.4679 187.618 60.7242C187.618 60.8602 187.529 60.9714 187.419 60.9714C187.309 60.9714 187.219 61.0979 187.219 61.2527C187.219 61.4529 187.551 61.557 188.367 61.6132C188.998 61.6566 189.604 61.6636 189.714 61.629C189.824 61.5942 190.087 61.1395 190.298 60.6186C190.51 60.0978 190.735 59.6267 190.799 59.5717C190.863 59.5167 191.582 58.1424 192.396 56.5177C193.21 54.8931 193.948 53.6349 194.035 53.7221C194.122 53.8093 194.877 55.2286 195.712 56.876C196.548 58.5237 197.451 60.2765 197.719 60.7714L198.206 61.6712L199.449 61.6456C200.386 61.6264 200.679 61.5524 200.639 61.3457C200.577 61.0252 198.551 56.9198 198.382 56.7723C198.319 56.7173 198.095 56.2452 197.883 55.7233C197.672 55.2012 197.431 54.7739 197.349 54.7735C197.266 54.7731 197.199 54.6359 197.199 54.4687C197.199 54.3016 196.995 53.8293 196.745 53.419C196.496 53.0089 195.816 51.7069 195.233 50.526C194.651 49.345 194.104 48.3351 194.017 48.2813C193.931 48.2277 193.286 49.3288 192.585 50.7283ZM107.645 50.8093C108.132 51.2982 108.074 52.284 107.536 52.6617C107.18 52.9117 106.47 52.9731 103.943 52.9731H100.794V51.6599V50.3466L104.052 50.4102C106.78 50.4632 107.365 50.5282 107.645 50.8093ZM108.427 55.6225C109.141 56.0258 109.364 56.4203 109.37 57.2949C109.375 57.9222 109.252 58.2425 108.851 58.6447L108.324 59.1717H104.559H100.794V57.2722V55.3726H104.39C106.897 55.3726 108.119 55.4481 108.427 55.6225Z" fill="#F58C1F"/>
<path fill-rule="evenodd" clip-rule="evenodd" d="M14.5462 0.120577C11.528 0.207395 8.66022 0.340484 8.17341 0.416202C4.65679 0.963517 1.58107 3.75396 0.385577 7.48187C0.014655 8.63843 -0.0738554 10.8044 0.200058 12.0234C0.310284 12.5139 0.436678 12.9149 0.480933 12.9145C0.525189 12.914 0.694188 12.7177 0.856459 12.4782C1.33832 11.7669 2.86803 10.2363 3.6487 9.68457C4.54833 9.04868 5.9081 8.41805 6.89507 8.17898C8.56758 7.77411 24.8039 7.38617 29.2391 7.64522C36.2138 8.05267 39.9491 8.85787 44.0053 10.8285C53.1403 15.2666 58.92 24.5318 58.92 34.7378C58.92 43.7236 54.4343 51.8166 46.6464 56.882C44.3066 58.4038 40.8758 59.8973 38.0974 60.6037C35.6876 61.2163 32.4088 61.5936 30.4193 61.4872C29.036 61.4132 28.0934 61.1272 27.0664 60.4699C25.2105 59.2822 24.1344 57.5277 24.0152 55.4945C23.9647 54.6338 23.9831 54.5263 24.2169 54.3105C24.579 53.9765 25.1831 53.9111 27.0976 53.9982C28.9993 54.0846 32.9638 53.8857 34.4764 53.6281C38.7868 52.8937 42.5344 50.9256 45.5558 47.8097C48.2047 45.0778 49.9232 41.7898 50.6782 38.0089C51.0503 36.1455 51.0503 33.2694 50.6782 31.4059C49.8944 27.4808 48.1063 24.1664 45.2364 21.3192C41.8792 17.9886 38.2317 16.2069 33.6647 15.6669C30.2216 15.2598 28.5439 15.1949 21.8042 15.2076C14.4103 15.2216 9.78208 15.3805 8.40944 15.6674C7.41658 15.8749 6.00617 16.4406 5.02559 17.0247C2.99513 18.2342 1.22313 20.648 0.520115 23.162C0.0177234 24.9587 -0.00941936 25.7397 0.054781 36.5183C0.0882973 42.1417 0.0775575 49.1878 0.0310594 52.1761C-0.018153 55.3324 -0.00800344 58.043 0.0552528 58.6437C0.541948 63.2685 3.29005 66.6199 7.81936 68.1124C8.5009 68.3369 9.53649 68.6041 10.1207 68.7061C11.4101 68.9314 14.5724 69.0702 15.1192 68.9256L15.5151 68.8209L14.1554 67.7995C10.8358 65.3061 9.135 63.1609 8.38112 60.5165L8.11865 59.596L8.08289 42.5494C8.04265 23.3636 7.97738 24.7905 8.93579 23.9158C9.71115 23.2082 10.3371 23.0591 12.8082 22.9936C15.0506 22.9342 15.4875 23.0057 15.7604 23.4768C15.8697 23.6655 15.9188 27.6215 15.9684 40.2577C16.0285 55.5549 16.049 56.8572 16.2429 57.668C17.3379 62.246 19.9046 65.5259 23.9626 67.5326C26.6409 68.8573 29.7329 69.332 33.6057 69.0132C42.8044 68.2559 50.4592 64.7941 56.7377 58.5521C62.338 52.9844 65.594 46.5042 66.6638 38.7971C66.9518 36.7233 66.9513 32.6115 66.663 30.5009C65.3283 20.7319 60.1194 12.3861 51.6621 6.46634C50.0467 5.33561 47.3187 3.87408 45.1748 2.99059C41.5342 1.49038 37.9625 0.705749 32.6026 0.228426C29.7413 -0.0263022 21.3843 -0.0763117 14.5462 0.120577Z" fill="#F58C1F"/>
</svg>
