<svg width="29" height="20" viewBox="0 0 29 20" fill="none" xmlns="http://www.w3.org/2000/svg">
<path d="M14.5 0C7.90909 0 2.28045 4.09955 0 9.88636C2.28045 15.6732 7.90909 19.7727 14.5 19.7727C21.0909 19.7727 26.7195 15.6732 29 9.88636C26.7195 4.09955 21.0909 0 14.5 0ZM14.5 16.4773C10.8618 16.4773 7.90909 13.5245 7.90909 9.88636C7.90909 6.24818 10.8618 3.29545 14.5 3.29545C18.1382 3.29545 21.0909 6.24818 21.0909 9.88636C21.0909 13.5245 18.1382 16.4773 14.5 16.4773ZM14.5 5.93182C12.3118 5.93182 10.5455 7.69818 10.5455 9.88636C10.5455 12.0745 12.3118 13.8409 14.5 13.8409C16.6882 13.8409 18.4545 12.0745 18.4545 9.88636C18.4545 7.69818 16.6882 5.93182 14.5 5.93182Z" fill="#A1A1A1"/>
</svg>
