<svg width="510" height="96" viewBox="0 0 510 96" fill="none" xmlns="http://www.w3.org/2000/svg">
<path d="M4.51193 7.1778V22H1.6877V7.1778H4.51193ZM17.7028 7.65852C19.0248 7.65852 20.2199 7.96565 21.2881 8.5799C22.3698 9.19415 23.2177 10.0554 23.832 11.1638C24.4596 12.2587 24.7734 13.5006 24.7734 14.8893C24.7734 16.2781 24.4596 17.5266 23.832 18.635C23.2177 19.7433 22.3698 20.6046 21.2881 21.2188C20.2199 21.8331 19.0248 22.1402 17.7028 22.1402C16.3808 22.1402 15.179 21.8331 14.0974 21.2188C13.0291 20.6046 12.1812 19.7433 11.5536 18.635C10.9393 17.5266 10.6322 16.2781 10.6322 14.8893C10.6322 13.5006 10.9393 12.2587 11.5536 11.1638C12.1812 10.0554 13.0291 9.19415 14.0974 8.5799C15.179 7.96565 16.3808 7.65852 17.7028 7.65852ZM17.7028 10.2624C16.8749 10.2624 16.1471 10.4494 15.5195 10.8233C14.8919 11.1972 14.3978 11.738 14.0373 12.4457C13.6901 13.1401 13.5165 13.9546 13.5165 14.8893C13.5165 15.8241 13.6901 16.6453 14.0373 17.353C14.3978 18.0474 14.8919 18.5815 15.5195 18.9554C16.1471 19.3293 16.8749 19.5163 17.7028 19.5163C18.5307 19.5163 19.2584 19.3293 19.886 18.9554C20.5137 18.5815 21.0011 18.0474 21.3482 17.353C21.7088 16.6453 21.889 15.8241 21.889 14.8893C21.889 13.9546 21.7088 13.1401 21.3482 12.4457C21.0011 11.738 20.5137 11.1972 19.886 10.8233C19.2584 10.4494 18.5307 10.2624 17.7028 10.2624ZM37.4531 7.71861C39.1757 7.71861 40.6045 8.14592 41.7396 9.00053C42.8746 9.84179 43.6024 10.9835 43.9228 12.4257H40.9584C40.678 11.7847 40.2306 11.2773 39.6164 10.9034C39.0155 10.5161 38.3011 10.3225 37.4732 10.3225C36.6586 10.3225 35.9375 10.5095 35.3099 10.8833C34.6823 11.2572 34.1949 11.7914 33.8477 12.4857C33.5006 13.1801 33.327 13.9947 33.327 14.9294C33.327 16.4116 33.7209 17.5667 34.5087 18.3946C35.3099 19.2225 36.3982 19.6365 37.7736 19.6365C38.7885 19.6365 39.6564 19.336 40.3775 18.7351C41.112 18.1342 41.586 17.2996 41.7997 16.2314H37.0125V14.2083H44.1632V16.9324C43.9629 17.8671 43.569 18.7284 42.9814 19.5163C42.4072 20.3041 41.6461 20.9384 40.698 21.4191C39.7633 21.8865 38.6883 22.1202 37.4732 22.1202C36.0844 22.1202 34.8559 21.8197 33.7877 21.2188C32.7327 20.6046 31.9115 19.7566 31.324 18.675C30.7498 17.58 30.4627 16.3315 30.4627 14.9294C30.4627 13.5273 30.7498 12.2854 31.324 11.2038C31.9115 10.1089 32.7327 9.25424 33.7877 8.63999C34.8426 8.02574 36.0644 7.71861 37.4531 7.71861ZM61.4762 7.85882V22H58.6519V7.85882H61.4762ZM80.015 22H77.1908L70.8613 12.3856V22H68.0371V7.85882H70.8613L77.1908 17.5533V7.85882H80.015V22ZM113.492 7.85882L110.027 22H106.542L103.898 11.7446L101.234 22H97.7688L94.3036 7.85882H97.3682L99.5314 18.8152L102.336 7.85882H105.44L108.265 18.8152L110.428 7.85882H113.492ZM122.255 7.85882V22H119.43V7.85882H122.255ZM138.43 7.85882V10.1022H134.524V22H131.7V10.1022H127.814V7.85882H138.43ZM155.708 7.85882V22H152.864V15.8508H146.815V22H143.991V7.85882H146.815V13.5874H152.864V7.85882H155.708ZM182.041 7.85882L177.254 17.0526V22H174.41V17.0526L169.602 7.85882H172.847L175.852 14.0481L178.856 7.85882H182.041ZM194.19 7.65852C195.512 7.65852 196.707 7.96565 197.775 8.5799C198.857 9.19415 199.705 10.0554 200.319 11.1638C200.947 12.2587 201.26 13.5006 201.26 14.8893C201.26 16.2781 200.947 17.5266 200.319 18.635C199.705 19.7433 198.857 20.6046 197.775 21.2188C196.707 21.8331 195.512 22.1402 194.19 22.1402C192.868 22.1402 191.666 21.8331 190.584 21.2188C189.516 20.6046 188.668 19.7433 188.041 18.635C187.426 17.5266 187.119 16.2781 187.119 14.8893C187.119 13.5006 187.426 12.2587 188.041 11.1638C188.668 10.0554 189.516 9.19415 190.584 8.5799C191.666 7.96565 192.868 7.65852 194.19 7.65852ZM194.19 10.2624C193.362 10.2624 192.634 10.4494 192.007 10.8233C191.379 11.1972 190.885 11.738 190.524 12.4457C190.177 13.1401 190.004 13.9546 190.004 14.8893C190.004 15.8241 190.177 16.6453 190.524 17.353C190.885 18.0474 191.379 18.5815 192.007 18.9554C192.634 19.3293 193.362 19.5163 194.19 19.5163C195.018 19.5163 195.745 19.3293 196.373 18.9554C197.001 18.5815 197.488 18.0474 197.835 17.353C198.196 16.6453 198.376 15.8241 198.376 14.8893C198.376 13.9546 198.196 13.1401 197.835 12.4457C197.488 11.738 197.001 11.1972 196.373 10.8233C195.745 10.4494 195.018 10.2624 194.19 10.2624ZM210.114 7.85882V16.1512C210.114 17.2596 210.355 18.0941 210.835 18.655C211.33 19.2025 212.037 19.4762 212.959 19.4762C213.867 19.4762 214.561 19.2025 215.042 18.655C215.536 18.0941 215.783 17.2596 215.783 16.1512V7.85882H218.587V16.1512C218.587 17.4599 218.34 18.5682 217.846 19.4762C217.365 20.3709 216.691 21.0386 215.823 21.4792C214.968 21.9199 213.994 22.1402 212.899 22.1402C211.203 22.1402 209.847 21.6328 208.832 20.6179C207.818 19.6031 207.31 18.1142 207.31 16.1512V7.85882H210.114ZM232.44 22L229.135 16.4917H227.893V22H225.069V7.85882H230.457C232.1 7.85882 233.348 8.25942 234.203 9.06062C235.071 9.86182 235.505 10.9167 235.505 12.2254C235.505 13.2936 235.204 14.1883 234.603 14.9094C234.016 15.6305 233.161 16.1112 232.04 16.3515L235.565 22H232.44ZM227.893 14.5488H230.217C231.833 14.5488 232.64 13.8344 232.64 12.4056C232.64 11.7246 232.44 11.1972 232.04 10.8233C231.652 10.436 231.045 10.2424 230.217 10.2424H227.893V14.5488ZM252.61 10.1022V13.7677H257.618V15.9309H252.61V19.7366H258.218V22H249.786V7.85882H258.218V10.1022H252.61ZM272.628 22L269.443 17.1728L266.619 22H263.394L267.841 14.7692L263.274 7.85882H266.619L269.744 12.5859L272.528 7.85882H275.753L271.326 14.9695L275.973 22H272.628ZM284.329 7.85882V22H281.505V7.85882H284.329ZM300.605 18.1342C300.605 18.8553 300.425 19.523 300.064 20.1372C299.704 20.7381 299.169 21.2255 298.462 21.5994C297.754 21.9599 296.893 22.1402 295.878 22.1402C294.876 22.1402 293.982 21.9733 293.194 21.6395C292.406 21.2923 291.772 20.7982 291.291 20.1572C290.824 19.5163 290.557 18.7685 290.49 17.9139H293.494C293.561 18.4881 293.788 18.9688 294.175 19.356C294.576 19.7299 295.103 19.9169 295.758 19.9169C296.345 19.9169 296.793 19.7633 297.1 19.4562C297.42 19.1357 297.58 18.7284 297.58 18.2344C297.58 17.7937 297.454 17.4332 297.2 17.1527C296.946 16.859 296.626 16.6253 296.238 16.4517C295.851 16.2781 295.317 16.0778 294.636 15.8508C293.755 15.557 293.034 15.2699 292.473 14.9895C291.912 14.6957 291.431 14.2751 291.031 13.7276C290.643 13.1801 290.45 12.4657 290.45 11.5844C290.45 10.3692 290.884 9.41448 291.752 8.72011C292.633 8.01238 293.795 7.65852 295.237 7.65852C296.732 7.65852 297.921 8.01906 298.802 8.74014C299.697 9.46122 300.204 10.4227 300.325 11.6245H297.28C297.2 11.117 296.986 10.7031 296.639 10.3826C296.292 10.0488 295.818 9.88185 295.217 9.88185C294.696 9.88185 294.275 10.0221 293.955 10.3025C293.634 10.5695 293.474 10.9635 293.474 11.4842C293.474 11.8982 293.594 12.2454 293.835 12.5258C294.089 12.7929 294.402 13.0132 294.776 13.1868C295.163 13.3604 295.684 13.554 296.339 13.7677C297.247 14.0881 297.981 14.3886 298.542 14.669C299.116 14.9494 299.603 15.3701 300.004 15.9309C300.405 16.4917 300.605 17.2262 300.605 18.1342ZM316.306 7.85882V10.1022H312.4V22H309.576V10.1022H305.69V7.85882H316.306ZM324.691 7.85882V22H321.866V7.85882H324.691ZM343.23 22H340.405L334.076 12.3856V22H331.252V7.85882H334.076L340.405 17.5533V7.85882H343.23V22ZM356.341 7.71861C358.064 7.71861 359.492 8.14592 360.627 9.00053C361.762 9.84179 362.49 10.9835 362.811 12.4257H359.846C359.566 11.7847 359.118 11.2773 358.504 10.9034C357.903 10.5161 357.189 10.3225 356.361 10.3225C355.546 10.3225 354.825 10.5095 354.198 10.8833C353.57 11.2572 353.083 11.7914 352.736 12.4857C352.388 13.1801 352.215 13.9947 352.215 14.9294C352.215 16.4116 352.609 17.5667 353.397 18.3946C354.198 19.2225 355.286 19.6365 356.661 19.6365C357.676 19.6365 358.544 19.336 359.265 18.7351C360 18.1342 360.474 17.2996 360.687 16.2314H355.9V14.2083H363.051V16.9324C362.851 17.8671 362.457 18.7284 361.869 19.5163C361.295 20.3041 360.534 20.9384 359.586 21.4191C358.651 21.8865 357.576 22.1202 356.361 22.1202C354.972 22.1202 353.744 21.8197 352.675 21.2188C351.621 20.6046 350.799 19.7566 350.212 18.675C349.638 17.58 349.35 16.3315 349.35 14.9294C349.35 13.5273 349.638 12.2854 350.212 11.2038C350.799 10.1089 351.621 9.25424 352.675 8.63999C353.73 8.02574 354.952 7.71861 356.341 7.71861ZM380.264 7.85882V16.1512C380.264 17.2596 380.504 18.0941 380.985 18.655C381.479 19.2025 382.187 19.4762 383.108 19.4762C384.016 19.4762 384.71 19.2025 385.191 18.655C385.685 18.0941 385.932 17.2596 385.932 16.1512V7.85882H388.736V16.1512C388.736 17.4599 388.489 18.5682 387.995 19.4762C387.515 20.3709 386.84 21.0386 385.972 21.4792C385.118 21.9199 384.143 22.1402 383.048 22.1402C381.352 22.1402 379.997 21.6328 378.982 20.6179C377.967 19.6031 377.46 18.1142 377.46 16.1512V7.85882H380.264ZM404.933 18.1342C404.933 18.8553 404.753 19.523 404.392 20.1372C404.032 20.7381 403.498 21.2255 402.79 21.5994C402.082 21.9599 401.221 22.1402 400.206 22.1402C399.204 22.1402 398.31 21.9733 397.522 21.6395C396.734 21.2923 396.1 20.7982 395.619 20.1572C395.152 19.5163 394.885 18.7685 394.818 17.9139H397.822C397.889 18.4881 398.116 18.9688 398.503 19.356C398.904 19.7299 399.431 19.9169 400.086 19.9169C400.673 19.9169 401.121 19.7633 401.428 19.4562C401.748 19.1357 401.909 18.7284 401.909 18.2344C401.909 17.7937 401.782 17.4332 401.528 17.1527C401.274 16.859 400.954 16.6253 400.567 16.4517C400.179 16.2781 399.645 16.0778 398.964 15.8508C398.083 15.557 397.362 15.2699 396.801 14.9895C396.24 14.6957 395.759 14.2751 395.359 13.7276C394.971 13.1801 394.778 12.4657 394.778 11.5844C394.778 10.3692 395.212 9.41448 396.08 8.72011C396.961 8.01238 398.123 7.65852 399.565 7.65852C401.061 7.65852 402.249 8.01906 403.13 8.74014C404.025 9.46122 404.532 10.4227 404.653 11.6245H401.608C401.528 11.117 401.314 10.7031 400.967 10.3826C400.62 10.0488 400.146 9.88185 399.545 9.88185C399.024 9.88185 398.604 10.0221 398.283 10.3025C397.963 10.5695 397.802 10.9635 397.802 11.4842C397.802 11.8982 397.923 12.2454 398.163 12.5258C398.417 12.7929 398.73 13.0132 399.104 13.1868C399.492 13.3604 400.012 13.554 400.667 13.7677C401.575 14.0881 402.309 14.3886 402.87 14.669C403.444 14.9494 403.932 15.3701 404.332 15.9309C404.733 16.4917 404.933 17.2262 404.933 18.1342ZM413.844 10.1022V13.7677H418.851V15.9309H413.844V19.7366H419.452V22H411.02V7.85882H419.452V10.1022H413.844ZM432.92 22L429.615 16.4917H428.373V22H425.549V7.85882H430.937C432.58 7.85882 433.828 8.25942 434.683 9.06062C435.551 9.86182 435.985 10.9167 435.985 12.2254C435.985 13.2936 435.684 14.1883 435.083 14.9094C434.496 15.6305 433.641 16.1112 432.52 16.3515L436.045 22H432.92ZM428.373 14.5488H430.697C432.313 14.5488 433.12 13.8344 433.12 12.4056C433.12 11.7246 432.92 11.1972 432.52 10.8233C432.132 10.436 431.525 10.2424 430.697 10.2424H428.373V14.5488ZM453.876 22H451.052L444.722 12.3856V22H441.898V7.85882H444.722L451.052 17.5533V7.85882H453.876V22ZM469.05 19.1557H463.382L462.38 22H459.396L464.604 8.01906H467.828L473.016 22H470.032L469.05 19.1557ZM468.289 17.0125L466.206 11.0436L464.123 17.0125H468.289ZM493.789 8.01906V22H490.985V12.2454L487.4 22H484.956L481.371 12.2854V22H478.546V8.01906H481.972L486.218 18.5348L490.384 8.01906H493.789ZM503.177 10.1022V13.7677H508.184V15.9309H503.177V19.7366H508.785V22H500.353V7.85882H508.785V10.1022H503.177Z" fill="url(#paint0_linear_1309_810)" fill-opacity="0.6"/>
<path d="M4.51193 29.1778V44H1.6877V29.1778H4.51193ZM17.7028 29.6585C19.0248 29.6585 20.2199 29.9656 21.2881 30.5799C22.3698 31.1942 23.2177 32.0554 23.832 33.1638C24.4596 34.2587 24.7734 35.5006 24.7734 36.8893C24.7734 38.2781 24.4596 39.5266 23.832 40.635C23.2177 41.7433 22.3698 42.6046 21.2881 43.2188C20.2199 43.8331 19.0248 44.1402 17.7028 44.1402C16.3808 44.1402 15.179 43.8331 14.0974 43.2188C13.0291 42.6046 12.1812 41.7433 11.5536 40.635C10.9393 39.5266 10.6322 38.2781 10.6322 36.8893C10.6322 35.5006 10.9393 34.2587 11.5536 33.1638C12.1812 32.0554 13.0291 31.1942 14.0974 30.5799C15.179 29.9656 16.3808 29.6585 17.7028 29.6585ZM17.7028 32.2624C16.8749 32.2624 16.1471 32.4494 15.5195 32.8233C14.8919 33.1972 14.3978 33.738 14.0373 34.4457C13.6901 35.1401 13.5165 35.9546 13.5165 36.8893C13.5165 37.8241 13.6901 38.6453 14.0373 39.353C14.3978 40.0474 14.8919 40.5815 15.5195 40.9554C16.1471 41.3293 16.8749 41.5163 17.7028 41.5163C18.5307 41.5163 19.2584 41.3293 19.886 40.9554C20.5137 40.5815 21.0011 40.0474 21.3482 39.353C21.7088 38.6453 21.889 37.8241 21.889 36.8893C21.889 35.9546 21.7088 35.1401 21.3482 34.4457C21.0011 33.738 20.5137 33.1972 19.886 32.8233C19.2584 32.4494 18.5307 32.2624 17.7028 32.2624ZM37.4531 29.7186C39.1757 29.7186 40.6045 30.1459 41.7396 31.0005C42.8746 31.8418 43.6024 32.9835 43.9228 34.4257H40.9584C40.678 33.7847 40.2306 33.2773 39.6164 32.9034C39.0155 32.5161 38.3011 32.3225 37.4732 32.3225C36.6586 32.3225 35.9375 32.5095 35.3099 32.8833C34.6823 33.2572 34.1949 33.7914 33.8477 34.4857C33.5006 35.1801 33.327 35.9947 33.327 36.9294C33.327 38.4116 33.7209 39.5667 34.5087 40.3946C35.3099 41.2225 36.3982 41.6365 37.7736 41.6365C38.7885 41.6365 39.6564 41.336 40.3775 40.7351C41.112 40.1342 41.586 39.2996 41.7997 38.2314H37.0125V36.2083H44.1632V38.9324C43.9629 39.8671 43.569 40.7284 42.9814 41.5163C42.4072 42.3041 41.6461 42.9384 40.698 43.4191C39.7633 43.8865 38.6883 44.1202 37.4732 44.1202C36.0844 44.1202 34.8559 43.8197 33.7877 43.2188C32.7327 42.6046 31.9115 41.7566 31.324 40.675C30.7498 39.58 30.4627 38.3315 30.4627 36.9294C30.4627 35.5273 30.7498 34.2854 31.324 33.2038C31.9115 32.1089 32.7327 31.2542 33.7877 30.64C34.8426 30.0257 36.0644 29.7186 37.4531 29.7186ZM61.4762 29.8588V44H58.6519V29.8588H61.4762ZM80.015 44H77.1908L70.8613 34.3856V44H68.0371V29.8588H70.8613L77.1908 39.5533V29.8588H80.015V44ZM113.492 29.8588L110.027 44H106.542L103.898 33.7446L101.234 44H97.7688L94.3036 29.8588H97.3682L99.5314 40.8152L102.336 29.8588H105.44L108.265 40.8152L110.428 29.8588H113.492ZM122.255 29.8588V44H119.43V29.8588H122.255ZM138.43 29.8588V32.1022H134.524V44H131.7V32.1022H127.814V29.8588H138.43ZM155.708 29.8588V44H152.864V37.8508H146.815V44H143.991V29.8588H146.815V35.5874H152.864V29.8588H155.708ZM182.041 29.8588L177.254 39.0526V44H174.41V39.0526L169.602 29.8588H172.847L175.852 36.0481L178.856 29.8588H182.041ZM194.19 29.6585C195.512 29.6585 196.707 29.9656 197.775 30.5799C198.857 31.1942 199.705 32.0554 200.319 33.1638C200.947 34.2587 201.26 35.5006 201.26 36.8893C201.26 38.2781 200.947 39.5266 200.319 40.635C199.705 41.7433 198.857 42.6046 197.775 43.2188C196.707 43.8331 195.512 44.1402 194.19 44.1402C192.868 44.1402 191.666 43.8331 190.584 43.2188C189.516 42.6046 188.668 41.7433 188.041 40.635C187.426 39.5266 187.119 38.2781 187.119 36.8893C187.119 35.5006 187.426 34.2587 188.041 33.1638C188.668 32.0554 189.516 31.1942 190.584 30.5799C191.666 29.9656 192.868 29.6585 194.19 29.6585ZM194.19 32.2624C193.362 32.2624 192.634 32.4494 192.007 32.8233C191.379 33.1972 190.885 33.738 190.524 34.4457C190.177 35.1401 190.004 35.9546 190.004 36.8893C190.004 37.8241 190.177 38.6453 190.524 39.353C190.885 40.0474 191.379 40.5815 192.007 40.9554C192.634 41.3293 193.362 41.5163 194.19 41.5163C195.018 41.5163 195.745 41.3293 196.373 40.9554C197.001 40.5815 197.488 40.0474 197.835 39.353C198.196 38.6453 198.376 37.8241 198.376 36.8893C198.376 35.9546 198.196 35.1401 197.835 34.4457C197.488 33.738 197.001 33.1972 196.373 32.8233C195.745 32.4494 195.018 32.2624 194.19 32.2624ZM210.114 29.8588V38.1512C210.114 39.2596 210.355 40.0941 210.835 40.655C211.33 41.2025 212.037 41.4762 212.959 41.4762C213.867 41.4762 214.561 41.2025 215.042 40.655C215.536 40.0941 215.783 39.2596 215.783 38.1512V29.8588H218.587V38.1512C218.587 39.4599 218.34 40.5682 217.846 41.4762C217.365 42.3709 216.691 43.0386 215.823 43.4792C214.968 43.9199 213.994 44.1402 212.899 44.1402C211.203 44.1402 209.847 43.6328 208.832 42.6179C207.818 41.6031 207.31 40.1142 207.31 38.1512V29.8588H210.114ZM232.44 44L229.135 38.4917H227.893V44H225.069V29.8588H230.457C232.1 29.8588 233.348 30.2594 234.203 31.0606C235.071 31.8618 235.505 32.9167 235.505 34.2254C235.505 35.2936 235.204 36.1883 234.603 36.9094C234.016 37.6305 233.161 38.1112 232.04 38.3515L235.565 44H232.44ZM227.893 36.5488H230.217C231.833 36.5488 232.64 35.8344 232.64 34.4056C232.64 33.7246 232.44 33.1972 232.04 32.8233C231.652 32.436 231.045 32.2424 230.217 32.2424H227.893V36.5488ZM252.61 32.1022V35.7677H257.618V37.9309H252.61V41.7366H258.218V44H249.786V29.8588H258.218V32.1022H252.61ZM272.628 44L269.443 39.1728L266.619 44H263.394L267.841 36.7692L263.274 29.8588H266.619L269.744 34.5859L272.528 29.8588H275.753L271.326 36.9695L275.973 44H272.628ZM284.329 29.8588V44H281.505V29.8588H284.329ZM300.605 40.1342C300.605 40.8553 300.425 41.523 300.064 42.1372C299.704 42.7381 299.169 43.2255 298.462 43.5994C297.754 43.9599 296.893 44.1402 295.878 44.1402C294.876 44.1402 293.982 43.9733 293.194 43.6395C292.406 43.2923 291.772 42.7982 291.291 42.1572C290.824 41.5163 290.557 40.7685 290.49 39.9139H293.494C293.561 40.4881 293.788 40.9688 294.175 41.356C294.576 41.7299 295.103 41.9169 295.758 41.9169C296.345 41.9169 296.793 41.7633 297.1 41.4562C297.42 41.1357 297.58 40.7284 297.58 40.2344C297.58 39.7937 297.454 39.4332 297.2 39.1527C296.946 38.859 296.626 38.6253 296.238 38.4517C295.851 38.2781 295.317 38.0778 294.636 37.8508C293.755 37.557 293.034 37.2699 292.473 36.9895C291.912 36.6957 291.431 36.2751 291.031 35.7276C290.643 35.1801 290.45 34.4657 290.45 33.5844C290.45 32.3692 290.884 31.4145 291.752 30.7201C292.633 30.0124 293.795 29.6585 295.237 29.6585C296.732 29.6585 297.921 30.0191 298.802 30.7401C299.697 31.4612 300.204 32.4227 300.325 33.6245H297.28C297.2 33.117 296.986 32.7031 296.639 32.3826C296.292 32.0488 295.818 31.8818 295.217 31.8818C294.696 31.8818 294.275 32.0221 293.955 32.3025C293.634 32.5695 293.474 32.9635 293.474 33.4842C293.474 33.8982 293.594 34.2454 293.835 34.5258C294.089 34.7929 294.402 35.0132 294.776 35.1868C295.163 35.3604 295.684 35.554 296.339 35.7677C297.247 36.0881 297.981 36.3886 298.542 36.669C299.116 36.9494 299.603 37.3701 300.004 37.9309C300.405 38.4917 300.605 39.2262 300.605 40.1342ZM316.306 29.8588V32.1022H312.4V44H309.576V32.1022H305.69V29.8588H316.306ZM324.691 29.8588V44H321.866V29.8588H324.691ZM343.23 44H340.405L334.076 34.3856V44H331.252V29.8588H334.076L340.405 39.5533V29.8588H343.23V44ZM356.341 29.7186C358.064 29.7186 359.492 30.1459 360.627 31.0005C361.762 31.8418 362.49 32.9835 362.811 34.4257H359.846C359.566 33.7847 359.118 33.2773 358.504 32.9034C357.903 32.5161 357.189 32.3225 356.361 32.3225C355.546 32.3225 354.825 32.5095 354.198 32.8833C353.57 33.2572 353.083 33.7914 352.736 34.4857C352.388 35.1801 352.215 35.9947 352.215 36.9294C352.215 38.4116 352.609 39.5667 353.397 40.3946C354.198 41.2225 355.286 41.6365 356.661 41.6365C357.676 41.6365 358.544 41.336 359.265 40.7351C360 40.1342 360.474 39.2996 360.687 38.2314H355.9V36.2083H363.051V38.9324C362.851 39.8671 362.457 40.7284 361.869 41.5163C361.295 42.3041 360.534 42.9384 359.586 43.4191C358.651 43.8865 357.576 44.1202 356.361 44.1202C354.972 44.1202 353.744 43.8197 352.675 43.2188C351.621 42.6046 350.799 41.7566 350.212 40.675C349.638 39.58 349.35 38.3315 349.35 36.9294C349.35 35.5273 349.638 34.2854 350.212 33.2038C350.799 32.1089 351.621 31.2542 352.675 30.64C353.73 30.0257 354.952 29.7186 356.341 29.7186ZM380.264 29.8588V38.1512C380.264 39.2596 380.504 40.0941 380.985 40.655C381.479 41.2025 382.187 41.4762 383.108 41.4762C384.016 41.4762 384.71 41.2025 385.191 40.655C385.685 40.0941 385.932 39.2596 385.932 38.1512V29.8588H388.736V38.1512C388.736 39.4599 388.489 40.5682 387.995 41.4762C387.515 42.3709 386.84 43.0386 385.972 43.4792C385.118 43.9199 384.143 44.1402 383.048 44.1402C381.352 44.1402 379.997 43.6328 378.982 42.6179C377.967 41.6031 377.46 40.1142 377.46 38.1512V29.8588H380.264ZM404.933 40.1342C404.933 40.8553 404.753 41.523 404.392 42.1372C404.032 42.7381 403.498 43.2255 402.79 43.5994C402.082 43.9599 401.221 44.1402 400.206 44.1402C399.204 44.1402 398.31 43.9733 397.522 43.6395C396.734 43.2923 396.1 42.7982 395.619 42.1572C395.152 41.5163 394.885 40.7685 394.818 39.9139H397.822C397.889 40.4881 398.116 40.9688 398.503 41.356C398.904 41.7299 399.431 41.9169 400.086 41.9169C400.673 41.9169 401.121 41.7633 401.428 41.4562C401.748 41.1357 401.909 40.7284 401.909 40.2344C401.909 39.7937 401.782 39.4332 401.528 39.1527C401.274 38.859 400.954 38.6253 400.567 38.4517C400.179 38.2781 399.645 38.0778 398.964 37.8508C398.083 37.557 397.362 37.2699 396.801 36.9895C396.24 36.6957 395.759 36.2751 395.359 35.7276C394.971 35.1801 394.778 34.4657 394.778 33.5844C394.778 32.3692 395.212 31.4145 396.08 30.7201C396.961 30.0124 398.123 29.6585 399.565 29.6585C401.061 29.6585 402.249 30.0191 403.13 30.7401C404.025 31.4612 404.532 32.4227 404.653 33.6245H401.608C401.528 33.117 401.314 32.7031 400.967 32.3826C400.62 32.0488 400.146 31.8818 399.545 31.8818C399.024 31.8818 398.604 32.0221 398.283 32.3025C397.963 32.5695 397.802 32.9635 397.802 33.4842C397.802 33.8982 397.923 34.2454 398.163 34.5258C398.417 34.7929 398.73 35.0132 399.104 35.1868C399.492 35.3604 400.012 35.554 400.667 35.7677C401.575 36.0881 402.309 36.3886 402.87 36.669C403.444 36.9494 403.932 37.3701 404.332 37.9309C404.733 38.4917 404.933 39.2262 404.933 40.1342ZM413.844 32.1022V35.7677H418.851V37.9309H413.844V41.7366H419.452V44H411.02V29.8588H419.452V32.1022H413.844ZM432.92 44L429.615 38.4917H428.373V44H425.549V29.8588H430.937C432.58 29.8588 433.828 30.2594 434.683 31.0606C435.551 31.8618 435.985 32.9167 435.985 34.2254C435.985 35.2936 435.684 36.1883 435.083 36.9094C434.496 37.6305 433.641 38.1112 432.52 38.3515L436.045 44H432.92ZM428.373 36.5488H430.697C432.313 36.5488 433.12 35.8344 433.12 34.4056C433.12 33.7246 432.92 33.1972 432.52 32.8233C432.132 32.436 431.525 32.2424 430.697 32.2424H428.373V36.5488ZM453.876 44H451.052L444.722 34.3856V44H441.898V29.8588H444.722L451.052 39.5533V29.8588H453.876V44ZM469.05 41.1557H463.382L462.38 44H459.396L464.604 30.0191H467.828L473.016 44H470.032L469.05 41.1557ZM468.289 39.0125L466.206 33.0436L464.123 39.0125H468.289ZM493.789 30.0191V44H490.985V34.2454L487.4 44H484.956L481.371 34.2854V44H478.546V30.0191H481.972L486.218 40.5348L490.384 30.0191H493.789ZM503.177 32.1022V35.7677H508.184V37.9309H503.177V41.7366H508.785V44H500.353V29.8588H508.785V32.1022H503.177Z" fill="url(#paint1_linear_1309_810)" fill-opacity="0.6"/>
<path d="M4.51193 51.1778V66H1.6877V51.1778H4.51193ZM17.7028 51.6585C19.0248 51.6585 20.2199 51.9656 21.2881 52.5799C22.3698 53.1942 23.2177 54.0554 23.832 55.1638C24.4596 56.2587 24.7734 57.5006 24.7734 58.8893C24.7734 60.2781 24.4596 61.5266 23.832 62.635C23.2177 63.7433 22.3698 64.6046 21.2881 65.2188C20.2199 65.8331 19.0248 66.1402 17.7028 66.1402C16.3808 66.1402 15.179 65.8331 14.0974 65.2188C13.0291 64.6046 12.1812 63.7433 11.5536 62.635C10.9393 61.5266 10.6322 60.2781 10.6322 58.8893C10.6322 57.5006 10.9393 56.2587 11.5536 55.1638C12.1812 54.0554 13.0291 53.1942 14.0974 52.5799C15.179 51.9656 16.3808 51.6585 17.7028 51.6585ZM17.7028 54.2624C16.8749 54.2624 16.1471 54.4494 15.5195 54.8233C14.8919 55.1972 14.3978 55.738 14.0373 56.4457C13.6901 57.1401 13.5165 57.9546 13.5165 58.8893C13.5165 59.8241 13.6901 60.6453 14.0373 61.353C14.3978 62.0474 14.8919 62.5815 15.5195 62.9554C16.1471 63.3293 16.8749 63.5163 17.7028 63.5163C18.5307 63.5163 19.2584 63.3293 19.886 62.9554C20.5137 62.5815 21.0011 62.0474 21.3482 61.353C21.7088 60.6453 21.889 59.8241 21.889 58.8893C21.889 57.9546 21.7088 57.1401 21.3482 56.4457C21.0011 55.738 20.5137 55.1972 19.886 54.8233C19.2584 54.4494 18.5307 54.2624 17.7028 54.2624ZM37.4531 51.7186C39.1757 51.7186 40.6045 52.1459 41.7396 53.0005C42.8746 53.8418 43.6024 54.9835 43.9228 56.4257H40.9584C40.678 55.7847 40.2306 55.2773 39.6164 54.9034C39.0155 54.5161 38.3011 54.3225 37.4732 54.3225C36.6586 54.3225 35.9375 54.5095 35.3099 54.8833C34.6823 55.2572 34.1949 55.7914 33.8477 56.4857C33.5006 57.1801 33.327 57.9947 33.327 58.9294C33.327 60.4116 33.7209 61.5667 34.5087 62.3946C35.3099 63.2225 36.3982 63.6365 37.7736 63.6365C38.7885 63.6365 39.6564 63.336 40.3775 62.7351C41.112 62.1342 41.586 61.2996 41.7997 60.2314H37.0125V58.2083H44.1632V60.9324C43.9629 61.8671 43.569 62.7284 42.9814 63.5163C42.4072 64.3041 41.6461 64.9384 40.698 65.4191C39.7633 65.8865 38.6883 66.1202 37.4732 66.1202C36.0844 66.1202 34.8559 65.8197 33.7877 65.2188C32.7327 64.6046 31.9115 63.7566 31.324 62.675C30.7498 61.58 30.4627 60.3315 30.4627 58.9294C30.4627 57.5273 30.7498 56.2854 31.324 55.2038C31.9115 54.1089 32.7327 53.2542 33.7877 52.64C34.8426 52.0257 36.0644 51.7186 37.4531 51.7186ZM61.4762 51.8588V66H58.6519V51.8588H61.4762ZM80.015 66H77.1908L70.8613 56.3856V66H68.0371V51.8588H70.8613L77.1908 61.5533V51.8588H80.015V66ZM113.492 51.8588L110.027 66H106.542L103.898 55.7446L101.234 66H97.7688L94.3036 51.8588H97.3682L99.5314 62.8152L102.336 51.8588H105.44L108.265 62.8152L110.428 51.8588H113.492ZM122.255 51.8588V66H119.43V51.8588H122.255ZM138.43 51.8588V54.1022H134.524V66H131.7V54.1022H127.814V51.8588H138.43ZM155.708 51.8588V66H152.864V59.8508H146.815V66H143.991V51.8588H146.815V57.5874H152.864V51.8588H155.708ZM182.041 51.8588L177.254 61.0526V66H174.41V61.0526L169.602 51.8588H172.847L175.852 58.0481L178.856 51.8588H182.041ZM194.19 51.6585C195.512 51.6585 196.707 51.9656 197.775 52.5799C198.857 53.1942 199.705 54.0554 200.319 55.1638C200.947 56.2587 201.26 57.5006 201.26 58.8893C201.26 60.2781 200.947 61.5266 200.319 62.635C199.705 63.7433 198.857 64.6046 197.775 65.2188C196.707 65.8331 195.512 66.1402 194.19 66.1402C192.868 66.1402 191.666 65.8331 190.584 65.2188C189.516 64.6046 188.668 63.7433 188.041 62.635C187.426 61.5266 187.119 60.2781 187.119 58.8893C187.119 57.5006 187.426 56.2587 188.041 55.1638C188.668 54.0554 189.516 53.1942 190.584 52.5799C191.666 51.9656 192.868 51.6585 194.19 51.6585ZM194.19 54.2624C193.362 54.2624 192.634 54.4494 192.007 54.8233C191.379 55.1972 190.885 55.738 190.524 56.4457C190.177 57.1401 190.004 57.9546 190.004 58.8893C190.004 59.8241 190.177 60.6453 190.524 61.353C190.885 62.0474 191.379 62.5815 192.007 62.9554C192.634 63.3293 193.362 63.5163 194.19 63.5163C195.018 63.5163 195.745 63.3293 196.373 62.9554C197.001 62.5815 197.488 62.0474 197.835 61.353C198.196 60.6453 198.376 59.8241 198.376 58.8893C198.376 57.9546 198.196 57.1401 197.835 56.4457C197.488 55.738 197.001 55.1972 196.373 54.8233C195.745 54.4494 195.018 54.2624 194.19 54.2624ZM210.114 51.8588V60.1512C210.114 61.2596 210.355 62.0941 210.835 62.655C211.33 63.2025 212.037 63.4762 212.959 63.4762C213.867 63.4762 214.561 63.2025 215.042 62.655C215.536 62.0941 215.783 61.2596 215.783 60.1512V51.8588H218.587V60.1512C218.587 61.4599 218.34 62.5682 217.846 63.4762C217.365 64.3709 216.691 65.0386 215.823 65.4792C214.968 65.9199 213.994 66.1402 212.899 66.1402C211.203 66.1402 209.847 65.6328 208.832 64.6179C207.818 63.6031 207.31 62.1142 207.31 60.1512V51.8588H210.114ZM232.44 66L229.135 60.4917H227.893V66H225.069V51.8588H230.457C232.1 51.8588 233.348 52.2594 234.203 53.0606C235.071 53.8618 235.505 54.9167 235.505 56.2254C235.505 57.2936 235.204 58.1883 234.603 58.9094C234.016 59.6305 233.161 60.1112 232.04 60.3515L235.565 66H232.44ZM227.893 58.5488H230.217C231.833 58.5488 232.64 57.8344 232.64 56.4056C232.64 55.7246 232.44 55.1972 232.04 54.8233C231.652 54.436 231.045 54.2424 230.217 54.2424H227.893V58.5488ZM252.61 54.1022V57.7677H257.618V59.9309H252.61V63.7366H258.218V66H249.786V51.8588H258.218V54.1022H252.61ZM272.628 66L269.443 61.1728L266.619 66H263.394L267.841 58.7692L263.274 51.8588H266.619L269.744 56.5859L272.528 51.8588H275.753L271.326 58.9695L275.973 66H272.628ZM284.329 51.8588V66H281.505V51.8588H284.329ZM300.605 62.1342C300.605 62.8553 300.425 63.523 300.064 64.1372C299.704 64.7381 299.169 65.2255 298.462 65.5994C297.754 65.9599 296.893 66.1402 295.878 66.1402C294.876 66.1402 293.982 65.9733 293.194 65.6395C292.406 65.2923 291.772 64.7982 291.291 64.1572C290.824 63.5163 290.557 62.7685 290.49 61.9139H293.494C293.561 62.4881 293.788 62.9688 294.175 63.356C294.576 63.7299 295.103 63.9169 295.758 63.9169C296.345 63.9169 296.793 63.7633 297.1 63.4562C297.42 63.1357 297.58 62.7284 297.58 62.2344C297.58 61.7937 297.454 61.4332 297.2 61.1527C296.946 60.859 296.626 60.6253 296.238 60.4517C295.851 60.2781 295.317 60.0778 294.636 59.8508C293.755 59.557 293.034 59.2699 292.473 58.9895C291.912 58.6957 291.431 58.2751 291.031 57.7276C290.643 57.1801 290.45 56.4657 290.45 55.5844C290.45 54.3692 290.884 53.4145 291.752 52.7201C292.633 52.0124 293.795 51.6585 295.237 51.6585C296.732 51.6585 297.921 52.0191 298.802 52.7401C299.697 53.4612 300.204 54.4227 300.325 55.6245H297.28C297.2 55.117 296.986 54.7031 296.639 54.3826C296.292 54.0488 295.818 53.8818 295.217 53.8818C294.696 53.8818 294.275 54.0221 293.955 54.3025C293.634 54.5695 293.474 54.9635 293.474 55.4842C293.474 55.8982 293.594 56.2454 293.835 56.5258C294.089 56.7929 294.402 57.0132 294.776 57.1868C295.163 57.3604 295.684 57.554 296.339 57.7677C297.247 58.0881 297.981 58.3886 298.542 58.669C299.116 58.9494 299.603 59.3701 300.004 59.9309C300.405 60.4917 300.605 61.2262 300.605 62.1342ZM316.306 51.8588V54.1022H312.4V66H309.576V54.1022H305.69V51.8588H316.306ZM324.691 51.8588V66H321.866V51.8588H324.691ZM343.23 66H340.405L334.076 56.3856V66H331.252V51.8588H334.076L340.405 61.5533V51.8588H343.23V66ZM356.341 51.7186C358.064 51.7186 359.492 52.1459 360.627 53.0005C361.762 53.8418 362.49 54.9835 362.811 56.4257H359.846C359.566 55.7847 359.118 55.2773 358.504 54.9034C357.903 54.5161 357.189 54.3225 356.361 54.3225C355.546 54.3225 354.825 54.5095 354.198 54.8833C353.57 55.2572 353.083 55.7914 352.736 56.4857C352.388 57.1801 352.215 57.9947 352.215 58.9294C352.215 60.4116 352.609 61.5667 353.397 62.3946C354.198 63.2225 355.286 63.6365 356.661 63.6365C357.676 63.6365 358.544 63.336 359.265 62.7351C360 62.1342 360.474 61.2996 360.687 60.2314H355.9V58.2083H363.051V60.9324C362.851 61.8671 362.457 62.7284 361.869 63.5163C361.295 64.3041 360.534 64.9384 359.586 65.4191C358.651 65.8865 357.576 66.1202 356.361 66.1202C354.972 66.1202 353.744 65.8197 352.675 65.2188C351.621 64.6046 350.799 63.7566 350.212 62.675C349.638 61.58 349.35 60.3315 349.35 58.9294C349.35 57.5273 349.638 56.2854 350.212 55.2038C350.799 54.1089 351.621 53.2542 352.675 52.64C353.73 52.0257 354.952 51.7186 356.341 51.7186ZM380.264 51.8588V60.1512C380.264 61.2596 380.504 62.0941 380.985 62.655C381.479 63.2025 382.187 63.4762 383.108 63.4762C384.016 63.4762 384.71 63.2025 385.191 62.655C385.685 62.0941 385.932 61.2596 385.932 60.1512V51.8588H388.736V60.1512C388.736 61.4599 388.489 62.5682 387.995 63.4762C387.515 64.3709 386.84 65.0386 385.972 65.4792C385.118 65.9199 384.143 66.1402 383.048 66.1402C381.352 66.1402 379.997 65.6328 378.982 64.6179C377.967 63.6031 377.46 62.1142 377.46 60.1512V51.8588H380.264ZM404.933 62.1342C404.933 62.8553 404.753 63.523 404.392 64.1372C404.032 64.7381 403.498 65.2255 402.79 65.5994C402.082 65.9599 401.221 66.1402 400.206 66.1402C399.204 66.1402 398.31 65.9733 397.522 65.6395C396.734 65.2923 396.1 64.7982 395.619 64.1572C395.152 63.5163 394.885 62.7685 394.818 61.9139H397.822C397.889 62.4881 398.116 62.9688 398.503 63.356C398.904 63.7299 399.431 63.9169 400.086 63.9169C400.673 63.9169 401.121 63.7633 401.428 63.4562C401.748 63.1357 401.909 62.7284 401.909 62.2344C401.909 61.7937 401.782 61.4332 401.528 61.1527C401.274 60.859 400.954 60.6253 400.567 60.4517C400.179 60.2781 399.645 60.0778 398.964 59.8508C398.083 59.557 397.362 59.2699 396.801 58.9895C396.24 58.6957 395.759 58.2751 395.359 57.7276C394.971 57.1801 394.778 56.4657 394.778 55.5844C394.778 54.3692 395.212 53.4145 396.08 52.7201C396.961 52.0124 398.123 51.6585 399.565 51.6585C401.061 51.6585 402.249 52.0191 403.13 52.7401C404.025 53.4612 404.532 54.4227 404.653 55.6245H401.608C401.528 55.117 401.314 54.7031 400.967 54.3826C400.62 54.0488 400.146 53.8818 399.545 53.8818C399.024 53.8818 398.604 54.0221 398.283 54.3025C397.963 54.5695 397.802 54.9635 397.802 55.4842C397.802 55.8982 397.923 56.2454 398.163 56.5258C398.417 56.7929 398.73 57.0132 399.104 57.1868C399.492 57.3604 400.012 57.554 400.667 57.7677C401.575 58.0881 402.309 58.3886 402.87 58.669C403.444 58.9494 403.932 59.3701 404.332 59.9309C404.733 60.4917 404.933 61.2262 404.933 62.1342ZM413.844 54.1022V57.7677H418.851V59.9309H413.844V63.7366H419.452V66H411.02V51.8588H419.452V54.1022H413.844ZM432.92 66L429.615 60.4917H428.373V66H425.549V51.8588H430.937C432.58 51.8588 433.828 52.2594 434.683 53.0606C435.551 53.8618 435.985 54.9167 435.985 56.2254C435.985 57.2936 435.684 58.1883 435.083 58.9094C434.496 59.6305 433.641 60.1112 432.52 60.3515L436.045 66H432.92ZM428.373 58.5488H430.697C432.313 58.5488 433.12 57.8344 433.12 56.4056C433.12 55.7246 432.92 55.1972 432.52 54.8233C432.132 54.436 431.525 54.2424 430.697 54.2424H428.373V58.5488ZM453.876 66H451.052L444.722 56.3856V66H441.898V51.8588H444.722L451.052 61.5533V51.8588H453.876V66ZM469.05 63.1557H463.382L462.38 66H459.396L464.604 52.0191H467.828L473.016 66H470.032L469.05 63.1557ZM468.289 61.0125L466.206 55.0436L464.123 61.0125H468.289ZM493.789 52.0191V66H490.985V56.2454L487.4 66H484.956L481.371 56.2854V66H478.546V52.0191H481.972L486.218 62.5348L490.384 52.0191H493.789ZM503.177 54.1022V57.7677H508.184V59.9309H503.177V63.7366H508.785V66H500.353V51.8588H508.785V54.1022H503.177Z" fill="url(#paint2_linear_1309_810)" fill-opacity="0.6"/>
<path d="M4.51193 73.1778V88H1.6877V73.1778H4.51193ZM17.7028 73.6585C19.0248 73.6585 20.2199 73.9656 21.2881 74.5799C22.3698 75.1942 23.2177 76.0554 23.832 77.1638C24.4596 78.2587 24.7734 79.5006 24.7734 80.8893C24.7734 82.2781 24.4596 83.5266 23.832 84.635C23.2177 85.7433 22.3698 86.6046 21.2881 87.2188C20.2199 87.8331 19.0248 88.1402 17.7028 88.1402C16.3808 88.1402 15.179 87.8331 14.0974 87.2188C13.0291 86.6046 12.1812 85.7433 11.5536 84.635C10.9393 83.5266 10.6322 82.2781 10.6322 80.8893C10.6322 79.5006 10.9393 78.2587 11.5536 77.1638C12.1812 76.0554 13.0291 75.1942 14.0974 74.5799C15.179 73.9656 16.3808 73.6585 17.7028 73.6585ZM17.7028 76.2624C16.8749 76.2624 16.1471 76.4494 15.5195 76.8233C14.8919 77.1972 14.3978 77.738 14.0373 78.4457C13.6901 79.1401 13.5165 79.9546 13.5165 80.8893C13.5165 81.8241 13.6901 82.6453 14.0373 83.353C14.3978 84.0474 14.8919 84.5815 15.5195 84.9554C16.1471 85.3293 16.8749 85.5163 17.7028 85.5163C18.5307 85.5163 19.2584 85.3293 19.886 84.9554C20.5137 84.5815 21.0011 84.0474 21.3482 83.353C21.7088 82.6453 21.889 81.8241 21.889 80.8893C21.889 79.9546 21.7088 79.1401 21.3482 78.4457C21.0011 77.738 20.5137 77.1972 19.886 76.8233C19.2584 76.4494 18.5307 76.2624 17.7028 76.2624ZM37.4531 73.7186C39.1757 73.7186 40.6045 74.1459 41.7396 75.0005C42.8746 75.8418 43.6024 76.9835 43.9228 78.4257H40.9584C40.678 77.7847 40.2306 77.2773 39.6164 76.9034C39.0155 76.5161 38.3011 76.3225 37.4732 76.3225C36.6586 76.3225 35.9375 76.5095 35.3099 76.8833C34.6823 77.2572 34.1949 77.7914 33.8477 78.4857C33.5006 79.1801 33.327 79.9947 33.327 80.9294C33.327 82.4116 33.7209 83.5667 34.5087 84.3946C35.3099 85.2225 36.3982 85.6365 37.7736 85.6365C38.7885 85.6365 39.6564 85.336 40.3775 84.7351C41.112 84.1342 41.586 83.2996 41.7997 82.2314H37.0125V80.2083H44.1632V82.9324C43.9629 83.8671 43.569 84.7284 42.9814 85.5163C42.4072 86.3041 41.6461 86.9384 40.698 87.4191C39.7633 87.8865 38.6883 88.1202 37.4732 88.1202C36.0844 88.1202 34.8559 87.8197 33.7877 87.2188C32.7327 86.6046 31.9115 85.7566 31.324 84.675C30.7498 83.58 30.4627 82.3315 30.4627 80.9294C30.4627 79.5273 30.7498 78.2854 31.324 77.2038C31.9115 76.1089 32.7327 75.2542 33.7877 74.64C34.8426 74.0257 36.0644 73.7186 37.4531 73.7186ZM61.4762 73.8588V88H58.6519V73.8588H61.4762ZM80.015 88H77.1908L70.8613 78.3856V88H68.0371V73.8588H70.8613L77.1908 83.5533V73.8588H80.015V88ZM113.492 73.8588L110.027 88H106.542L103.898 77.7446L101.234 88H97.7688L94.3036 73.8588H97.3682L99.5314 84.8152L102.336 73.8588H105.44L108.265 84.8152L110.428 73.8588H113.492ZM122.255 73.8588V88H119.43V73.8588H122.255ZM138.43 73.8588V76.1022H134.524V88H131.7V76.1022H127.814V73.8588H138.43ZM155.708 73.8588V88H152.864V81.8508H146.815V88H143.991V73.8588H146.815V79.5874H152.864V73.8588H155.708ZM182.041 73.8588L177.254 83.0526V88H174.41V83.0526L169.602 73.8588H172.847L175.852 80.0481L178.856 73.8588H182.041ZM194.19 73.6585C195.512 73.6585 196.707 73.9656 197.775 74.5799C198.857 75.1942 199.705 76.0554 200.319 77.1638C200.947 78.2587 201.26 79.5006 201.26 80.8893C201.26 82.2781 200.947 83.5266 200.319 84.635C199.705 85.7433 198.857 86.6046 197.775 87.2188C196.707 87.8331 195.512 88.1402 194.19 88.1402C192.868 88.1402 191.666 87.8331 190.584 87.2188C189.516 86.6046 188.668 85.7433 188.041 84.635C187.426 83.5266 187.119 82.2781 187.119 80.8893C187.119 79.5006 187.426 78.2587 188.041 77.1638C188.668 76.0554 189.516 75.1942 190.584 74.5799C191.666 73.9656 192.868 73.6585 194.19 73.6585ZM194.19 76.2624C193.362 76.2624 192.634 76.4494 192.007 76.8233C191.379 77.1972 190.885 77.738 190.524 78.4457C190.177 79.1401 190.004 79.9546 190.004 80.8893C190.004 81.8241 190.177 82.6453 190.524 83.353C190.885 84.0474 191.379 84.5815 192.007 84.9554C192.634 85.3293 193.362 85.5163 194.19 85.5163C195.018 85.5163 195.745 85.3293 196.373 84.9554C197.001 84.5815 197.488 84.0474 197.835 83.353C198.196 82.6453 198.376 81.8241 198.376 80.8893C198.376 79.9546 198.196 79.1401 197.835 78.4457C197.488 77.738 197.001 77.1972 196.373 76.8233C195.745 76.4494 195.018 76.2624 194.19 76.2624ZM210.114 73.8588V82.1512C210.114 83.2596 210.355 84.0941 210.835 84.655C211.33 85.2025 212.037 85.4762 212.959 85.4762C213.867 85.4762 214.561 85.2025 215.042 84.655C215.536 84.0941 215.783 83.2596 215.783 82.1512V73.8588H218.587V82.1512C218.587 83.4599 218.34 84.5682 217.846 85.4762C217.365 86.3709 216.691 87.0386 215.823 87.4792C214.968 87.9199 213.994 88.1402 212.899 88.1402C211.203 88.1402 209.847 87.6328 208.832 86.6179C207.818 85.6031 207.31 84.1142 207.31 82.1512V73.8588H210.114ZM232.44 88L229.135 82.4917H227.893V88H225.069V73.8588H230.457C232.1 73.8588 233.348 74.2594 234.203 75.0606C235.071 75.8618 235.505 76.9167 235.505 78.2254C235.505 79.2936 235.204 80.1883 234.603 80.9094C234.016 81.6305 233.161 82.1112 232.04 82.3515L235.565 88H232.44ZM227.893 80.5488H230.217C231.833 80.5488 232.64 79.8344 232.64 78.4056C232.64 77.7246 232.44 77.1972 232.04 76.8233C231.652 76.436 231.045 76.2424 230.217 76.2424H227.893V80.5488ZM252.61 76.1022V79.7677H257.618V81.9309H252.61V85.7366H258.218V88H249.786V73.8588H258.218V76.1022H252.61ZM272.628 88L269.443 83.1728L266.619 88H263.394L267.841 80.7692L263.274 73.8588H266.619L269.744 78.5859L272.528 73.8588H275.753L271.326 80.9695L275.973 88H272.628ZM284.329 73.8588V88H281.505V73.8588H284.329ZM300.605 84.1342C300.605 84.8553 300.425 85.523 300.064 86.1372C299.704 86.7381 299.169 87.2255 298.462 87.5994C297.754 87.9599 296.893 88.1402 295.878 88.1402C294.876 88.1402 293.982 87.9733 293.194 87.6395C292.406 87.2923 291.772 86.7982 291.291 86.1572C290.824 85.5163 290.557 84.7685 290.49 83.9139H293.494C293.561 84.4881 293.788 84.9688 294.175 85.356C294.576 85.7299 295.103 85.9169 295.758 85.9169C296.345 85.9169 296.793 85.7633 297.1 85.4562C297.42 85.1357 297.58 84.7284 297.58 84.2344C297.58 83.7937 297.454 83.4332 297.2 83.1527C296.946 82.859 296.626 82.6253 296.238 82.4517C295.851 82.2781 295.317 82.0778 294.636 81.8508C293.755 81.557 293.034 81.2699 292.473 80.9895C291.912 80.6957 291.431 80.2751 291.031 79.7276C290.643 79.1801 290.45 78.4657 290.45 77.5844C290.45 76.3692 290.884 75.4145 291.752 74.7201C292.633 74.0124 293.795 73.6585 295.237 73.6585C296.732 73.6585 297.921 74.0191 298.802 74.7401C299.697 75.4612 300.204 76.4227 300.325 77.6245H297.28C297.2 77.117 296.986 76.7031 296.639 76.3826C296.292 76.0488 295.818 75.8818 295.217 75.8818C294.696 75.8818 294.275 76.0221 293.955 76.3025C293.634 76.5695 293.474 76.9635 293.474 77.4842C293.474 77.8982 293.594 78.2454 293.835 78.5258C294.089 78.7929 294.402 79.0132 294.776 79.1868C295.163 79.3604 295.684 79.554 296.339 79.7677C297.247 80.0881 297.981 80.3886 298.542 80.669C299.116 80.9494 299.603 81.3701 300.004 81.9309C300.405 82.4917 300.605 83.2262 300.605 84.1342ZM316.306 73.8588V76.1022H312.4V88H309.576V76.1022H305.69V73.8588H316.306ZM324.691 73.8588V88H321.866V73.8588H324.691ZM343.23 88H340.405L334.076 78.3856V88H331.252V73.8588H334.076L340.405 83.5533V73.8588H343.23V88ZM356.341 73.7186C358.064 73.7186 359.492 74.1459 360.627 75.0005C361.762 75.8418 362.49 76.9835 362.811 78.4257H359.846C359.566 77.7847 359.118 77.2773 358.504 76.9034C357.903 76.5161 357.189 76.3225 356.361 76.3225C355.546 76.3225 354.825 76.5095 354.198 76.8833C353.57 77.2572 353.083 77.7914 352.736 78.4857C352.388 79.1801 352.215 79.9947 352.215 80.9294C352.215 82.4116 352.609 83.5667 353.397 84.3946C354.198 85.2225 355.286 85.6365 356.661 85.6365C357.676 85.6365 358.544 85.336 359.265 84.7351C360 84.1342 360.474 83.2996 360.687 82.2314H355.9V80.2083H363.051V82.9324C362.851 83.8671 362.457 84.7284 361.869 85.5163C361.295 86.3041 360.534 86.9384 359.586 87.4191C358.651 87.8865 357.576 88.1202 356.361 88.1202C354.972 88.1202 353.744 87.8197 352.675 87.2188C351.621 86.6046 350.799 85.7566 350.212 84.675C349.638 83.58 349.35 82.3315 349.35 80.9294C349.35 79.5273 349.638 78.2854 350.212 77.2038C350.799 76.1089 351.621 75.2542 352.675 74.64C353.73 74.0257 354.952 73.7186 356.341 73.7186ZM380.264 73.8588V82.1512C380.264 83.2596 380.504 84.0941 380.985 84.655C381.479 85.2025 382.187 85.4762 383.108 85.4762C384.016 85.4762 384.71 85.2025 385.191 84.655C385.685 84.0941 385.932 83.2596 385.932 82.1512V73.8588H388.736V82.1512C388.736 83.4599 388.489 84.5682 387.995 85.4762C387.515 86.3709 386.84 87.0386 385.972 87.4792C385.118 87.9199 384.143 88.1402 383.048 88.1402C381.352 88.1402 379.997 87.6328 378.982 86.6179C377.967 85.6031 377.46 84.1142 377.46 82.1512V73.8588H380.264ZM404.933 84.1342C404.933 84.8553 404.753 85.523 404.392 86.1372C404.032 86.7381 403.498 87.2255 402.79 87.5994C402.082 87.9599 401.221 88.1402 400.206 88.1402C399.204 88.1402 398.31 87.9733 397.522 87.6395C396.734 87.2923 396.1 86.7982 395.619 86.1572C395.152 85.5163 394.885 84.7685 394.818 83.9139H397.822C397.889 84.4881 398.116 84.9688 398.503 85.356C398.904 85.7299 399.431 85.9169 400.086 85.9169C400.673 85.9169 401.121 85.7633 401.428 85.4562C401.748 85.1357 401.909 84.7284 401.909 84.2344C401.909 83.7937 401.782 83.4332 401.528 83.1527C401.274 82.859 400.954 82.6253 400.567 82.4517C400.179 82.2781 399.645 82.0778 398.964 81.8508C398.083 81.557 397.362 81.2699 396.801 80.9895C396.24 80.6957 395.759 80.2751 395.359 79.7276C394.971 79.1801 394.778 78.4657 394.778 77.5844C394.778 76.3692 395.212 75.4145 396.08 74.7201C396.961 74.0124 398.123 73.6585 399.565 73.6585C401.061 73.6585 402.249 74.0191 403.13 74.7401C404.025 75.4612 404.532 76.4227 404.653 77.6245H401.608C401.528 77.117 401.314 76.7031 400.967 76.3826C400.62 76.0488 400.146 75.8818 399.545 75.8818C399.024 75.8818 398.604 76.0221 398.283 76.3025C397.963 76.5695 397.802 76.9635 397.802 77.4842C397.802 77.8982 397.923 78.2454 398.163 78.5258C398.417 78.7929 398.73 79.0132 399.104 79.1868C399.492 79.3604 400.012 79.554 400.667 79.7677C401.575 80.0881 402.309 80.3886 402.87 80.669C403.444 80.9494 403.932 81.3701 404.332 81.9309C404.733 82.4917 404.933 83.2262 404.933 84.1342ZM413.844 76.1022V79.7677H418.851V81.9309H413.844V85.7366H419.452V88H411.02V73.8588H419.452V76.1022H413.844ZM432.92 88L429.615 82.4917H428.373V88H425.549V73.8588H430.937C432.58 73.8588 433.828 74.2594 434.683 75.0606C435.551 75.8618 435.985 76.9167 435.985 78.2254C435.985 79.2936 435.684 80.1883 435.083 80.9094C434.496 81.6305 433.641 82.1112 432.52 82.3515L436.045 88H432.92ZM428.373 80.5488H430.697C432.313 80.5488 433.12 79.8344 433.12 78.4056C433.12 77.7246 432.92 77.1972 432.52 76.8233C432.132 76.436 431.525 76.2424 430.697 76.2424H428.373V80.5488ZM453.876 88H451.052L444.722 78.3856V88H441.898V73.8588H444.722L451.052 83.5533V73.8588H453.876V88ZM469.05 85.1557H463.382L462.38 88H459.396L464.604 74.0191H467.828L473.016 88H470.032L469.05 85.1557ZM468.289 83.0125L466.206 77.0436L464.123 83.0125H468.289ZM493.789 74.0191V88H490.985V78.2454L487.4 88H484.956L481.371 78.2854V88H478.546V74.0191H481.972L486.218 84.5348L490.384 74.0191H493.789ZM503.177 76.1022V79.7677H508.184V81.9309H503.177V85.7366H508.785V88H500.353V73.8588H508.785V76.1022H503.177Z" fill="url(#paint3_linear_1309_810)" fill-opacity="0.6"/>
<defs>
<linearGradient id="paint0_linear_1309_810" x1="249" y1="2.34375" x2="248.946" y2="29.2207" gradientUnits="userSpaceOnUse">
<stop stop-color="#F58C1F"/>
<stop offset="0.640625" stop-color="#AE450A"/>
<stop offset="1" stop-color="#AE0A0A" stop-opacity="0.26"/>
</linearGradient>
<linearGradient id="paint1_linear_1309_810" x1="249" y1="24.3437" x2="248.946" y2="51.2207" gradientUnits="userSpaceOnUse">
<stop stop-color="#F58C1F"/>
<stop offset="0.640625" stop-color="#AE450A"/>
<stop offset="1" stop-color="#AE0A0A" stop-opacity="0.26"/>
</linearGradient>
<linearGradient id="paint2_linear_1309_810" x1="249" y1="46.3437" x2="248.946" y2="73.2207" gradientUnits="userSpaceOnUse">
<stop stop-color="#F58C1F"/>
<stop offset="0.640625" stop-color="#AE450A"/>
<stop offset="1" stop-color="#AE0A0A" stop-opacity="0.26"/>
</linearGradient>
<linearGradient id="paint3_linear_1309_810" x1="249" y1="68.3437" x2="248.946" y2="95.2207" gradientUnits="userSpaceOnUse">
<stop stop-color="#F58C1F"/>
<stop offset="0.640625" stop-color="#AE450A"/>
<stop offset="1" stop-color="#AE0A0A" stop-opacity="0.26"/>
</linearGradient>
</defs>
</svg>
