<svg width="19" height="20" viewBox="0 0 19 20" fill="none" xmlns="http://www.w3.org/2000/svg">
<path d="M15.2928 3.85913C15.2928 3.85913 16.2839 3.08899 16.8346 2.53822C17.513 1.85987 17.7152 1.14885 17.4788 1.06483C17.2423 0.980818 16.3259 1.14885 16.3259 1.14885L13.5814 2.48688L12.8859 3.51996L15.2928 3.85913ZM3.83866 3.50284C3.83866 3.50284 3.263 3.29903 2.61888 2.60512C1.99032 1.92677 1.80517 1.46935 1.89075 1.21575C1.97476 0.962148 5.10979 1.8941 5.10979 1.8941L7.19462 2.82605L7.73605 3.9447L3.83866 3.50284Z" fill="#69A246"/>
<path d="M9.85344 3.55419C9.85344 3.55419 10.5147 2.23328 11.582 1.67317C12.6493 1.11307 13.7679 0.994825 15.4794 0.927924C17.1908 0.861023 17.4786 1.06328 17.4786 1.06328C17.4786 1.06328 16.1904 1.67317 14.9535 2.24884C13.7166 2.8245 12.7162 3.58686 12.7162 3.58686L10.0744 5.58768L6.48192 2.91007C6.48192 2.91007 5.22791 2.28306 4.19483 1.8941C3.16175 1.50514 1.89062 1.21576 1.89062 1.21576C1.89062 1.21576 2.14112 0.895251 4.49978 1.01194C6.87244 1.13018 7.75305 1.72296 8.46407 2.14771C9.17509 2.57245 9.85344 3.55419 9.85344 3.55419Z" fill="#82B032"/>
<path d="M10.0399 3.9276C10.4289 3.89337 11.2815 2.71093 13.6106 2.89918C15.9397 3.08588 19.4932 5.73082 18.5364 10.6909C18.0167 13.3887 16.6134 15.1281 14.0198 17.0138C12.187 18.3456 10.3215 19.192 9.45958 19.2044C8.68321 19.2169 7.61279 17.5179 7.61279 17.5179L10.0399 3.9276Z" fill="url(#paint0_radial_1309_546)"/>
<path d="M10.0405 3.9276C10.4295 3.89337 11.2821 2.71093 13.6112 2.89918C15.7956 3.07499 19.0551 5.41032 18.6661 9.78847C18.6397 10.081 18.341 11.3365 17.7513 11.3988C14.8761 11.7068 13.5007 8.1875 12.7601 7.26022C11.3443 5.49122 10.0405 3.9276 10.0405 3.9276Z" fill="url(#paint1_radial_1309_546)"/>
<path d="M9.93311 3.95871C10.3221 3.92448 11.282 2.71092 13.6111 2.89762C15.3801 3.03921 17.8524 4.59816 18.5245 7.5107C18.6816 8.19528 17.7808 8.97942 17.1942 9.08055C15.4019 9.39016 13.2579 6.78724 12.5158 5.85995C11.5092 4.60127 10.6892 4.32589 10.2645 4.18275C10.0934 4.12363 9.93311 3.95871 9.93311 3.95871Z" fill="url(#paint2_radial_1309_546)"/>
<path d="M13.1767 10.501L12.8359 14.0857L11.3532 17.4541L10.1163 18.9679C10.1163 18.9679 9.76313 19.1889 9.4613 19.2029C9.15791 19.2153 6.90193 18.5665 4.89334 17.2067C2.88474 15.8469 1.29 14.218 0.597649 12.3867C-0.267401 10.0996 -0.298518 6.63788 1.77231 4.72263C3.84314 2.80738 5.88285 2.52889 7.61295 2.89918C9.34305 3.26947 9.86893 3.85758 10.2097 4.13608C10.5504 4.41457 12.002 6.17579 12.002 6.17579L13.1455 9.11167L13.1767 10.501Z" fill="url(#paint3_radial_1309_546)"/>
<path d="M8.26786 14.8979C4.50272 15.3646 1.27901 13.1071 0.586658 11.2759C0.107458 10.011 -0.104137 9.49597 0.141686 7.97124C0.340834 6.74212 0.80292 5.63903 1.77066 4.72263C3.70146 2.89452 5.90454 2.48377 7.7062 2.90074C9.43008 3.29904 9.86727 3.85758 10.2064 4.13608C10.5456 4.41458 11.9988 6.17579 11.9988 6.17579L13.1423 9.11167C13.1454 9.11167 13.3788 14.2646 8.26786 14.8979Z" fill="url(#paint4_radial_1309_546)"/>
<path d="M9.99178 18.982C10.0587 19.0006 10.7044 18.6895 11.1104 18.1838C12.2011 16.8224 13.5858 14.9305 13.8316 11.4252C14.2003 6.16646 10.7868 4.22943 10.5799 4.13608C10.373 4.04429 10.0727 4.04429 10.303 4.29789C10.5332 4.55149 13.0941 7.41113 12.7472 11.3101C12.4376 14.7983 11.0638 17.4681 10.5783 18.0687C10.096 18.6677 9.7973 18.9259 9.99178 18.982Z" fill="url(#paint5_radial_1309_546)"/>
<path d="M3.83097 8.01169C3.83097 8.01169 3.33932 9.1988 2.34981 8.41621C1.81148 7.98991 1.84727 6.88993 2.37159 5.97198C3.0126 4.84555 4.22149 4.07074 5.8349 3.85136C7.27561 3.65532 8.25424 4.06451 8.43316 4.914C8.65098 5.94086 7.7377 5.89885 7.7377 5.89885C5.17522 5.81795 4.20593 7.15909 3.83097 8.01169Z" fill="url(#paint6_radial_1309_546)"/>
<path d="M3.1011 9.10544C3.00153 7.98056 3.70788 6.71099 4.88877 5.99219C6.10233 5.25317 7.61305 5.1567 8.77682 5.73392L3.1011 9.10544Z" fill="url(#paint7_radial_1309_546)"/>
<path d="M3.83097 8.01169C3.83097 8.01169 3.33932 9.1988 2.34981 8.41621C1.81148 7.98991 1.84727 6.88993 2.37159 5.97198C3.0126 4.84555 4.22149 4.07074 5.8349 3.85136C7.27561 3.65532 8.25424 4.06451 8.43316 4.914C8.65098 5.94086 7.7377 5.89885 7.7377 5.89885C5.17522 5.81795 4.20593 7.15909 3.83097 8.01169Z" fill="url(#paint8_radial_1309_546)"/>
<defs>
<radialGradient id="paint0_radial_1309_546" cx="0" cy="0" r="1" gradientUnits="userSpaceOnUse" gradientTransform="translate(11.7261 2.71699) scale(13.8173 13.8173)">
<stop offset="0.719" stop-color="#FE622B"/>
<stop offset="0.78" stop-color="#FB582C"/>
<stop offset="0.886" stop-color="#F23D2F"/>
<stop offset="1" stop-color="#E71932"/>
</radialGradient>
<radialGradient id="paint1_radial_1309_546" cx="0" cy="0" r="1" gradientUnits="userSpaceOnUse" gradientTransform="translate(15.446 5.34833) rotate(143.814) scale(4.41078 9.60401)">
<stop offset="0.371" stop-color="#FF9759"/>
<stop offset="0.747" stop-color="#FF9759" stop-opacity="0"/>
</radialGradient>
<radialGradient id="paint2_radial_1309_546" cx="0" cy="0" r="1" gradientUnits="userSpaceOnUse" gradientTransform="translate(7.75508 2.49497) scale(7.88798 7.88798)">
<stop offset="0.481" stop-color="#FF9759"/>
<stop offset="1" stop-color="#FF9759" stop-opacity="0"/>
</radialGradient>
<radialGradient id="paint3_radial_1309_546" cx="0" cy="0" r="1" gradientUnits="userSpaceOnUse" gradientTransform="translate(8.01607 4.61123) scale(11.9599 11.9599)">
<stop offset="0.701" stop-color="#FE622B"/>
<stop offset="0.766" stop-color="#FD5D2B"/>
<stop offset="0.84" stop-color="#F8502D"/>
<stop offset="0.917" stop-color="#F1392F"/>
<stop offset="0.998" stop-color="#E71A32"/>
<stop offset="0.999" stop-color="#E71932"/>
</radialGradient>
<radialGradient id="paint4_radial_1309_546" cx="0" cy="0" r="1" gradientUnits="userSpaceOnUse" gradientTransform="translate(6.37773 2.94369) rotate(88.9858) scale(11.3699 9.05569)">
<stop offset="0.638" stop-color="#FF9759"/>
<stop offset="1" stop-color="#FF9759" stop-opacity="0"/>
</radialGradient>
<radialGradient id="paint5_radial_1309_546" cx="0" cy="0" r="1" gradientUnits="userSpaceOnUse" gradientTransform="translate(11.5535 2.79681) scale(13.3406 13.3406)">
<stop offset="0.499" stop-color="#F34124"/>
<stop offset="0.999" stop-color="#D10D22"/>
</radialGradient>
<radialGradient id="paint6_radial_1309_546" cx="0" cy="0" r="1" gradientUnits="userSpaceOnUse" gradientTransform="translate(4.62815 5.62739) rotate(-28.2103) scale(3.62971 1.84481)">
<stop offset="0.345" stop-color="#FEBD92"/>
<stop offset="1" stop-color="#FEBD92" stop-opacity="0"/>
</radialGradient>
<radialGradient id="paint7_radial_1309_546" cx="0" cy="0" r="1" gradientUnits="userSpaceOnUse" gradientTransform="translate(6.21126 8.02624) rotate(-30.8811) scale(3.48189 2.37823)">
<stop offset="0.799" stop-color="#FF9759"/>
<stop offset="1" stop-color="#FF9759" stop-opacity="0"/>
</radialGradient>
<radialGradient id="paint8_radial_1309_546" cx="0" cy="0" r="1" gradientUnits="userSpaceOnUse" gradientTransform="translate(4.96459 6.24476) rotate(-29.6646) scale(3.46581 2.02061)">
<stop offset="0.745" stop-color="#FF9759" stop-opacity="0"/>
<stop offset="0.974" stop-color="#FF9759"/>
</radialGradient>
</defs>
</svg>
