<svg width="18" height="23" viewBox="0 0 18 23" fill="none" xmlns="http://www.w3.org/2000/svg">
<path d="M12.0955 8.75985C12.5547 7.30451 12.7873 6.02969 12.7873 4.93131C12.7873 2.48569 11.85 0.599976 10.2919 0.599976C9.44644 0.599976 9.18493 1.11398 8.85754 2.38167C8.8755 2.31537 8.69484 3.02825 8.64293 3.21897C8.54212 3.5851 8.36644 4.20823 8.11691 5.08633C8.11013 5.10979 8.10004 5.13212 8.08696 5.15262L5.22626 9.72769C4.54918 10.8095 3.55036 11.641 2.37654 12.0999L1.12186 12.5915C0.738368 12.7416 0.418898 13.0249 0.219564 13.3918C0.0202309 13.7587 -0.0462196 14.1856 0.0318837 14.5975L0.716615 18.2068C0.798302 18.6373 0.998999 19.0348 1.29495 19.3524C1.5909 19.67 1.9697 19.8942 2.38652 19.9987L10.6213 22.0608C11.8351 22.3647 13.1173 22.1665 14.1889 21.5096C15.2605 20.8526 16.0349 19.7898 16.3437 18.5525L17.9148 12.2569C18.0182 11.8428 18.0276 11.41 17.9423 10.9916C17.857 10.5732 17.6793 10.1802 17.4226 9.84269C17.166 9.50519 16.8372 9.23209 16.4615 9.04424C16.0858 8.85639 15.673 8.75877 15.2547 8.75883L12.0955 8.75985Z" fill="white"/>
</svg>
